<svg xmlns="http://www.w3.org/2000/svg" xmlns:ns1="http://www.iki.fi/pav/software/textext/" width="547.762" height="146.756" viewBox="0 0 144.929 38.829"><rect width="100%" height="100%" fill="#f5f5f5"/><defs><marker id="b" orient="auto" refX="0" refY="0" style="overflow:visible"><path d="m0 0 5-5-17.5 5L5 5Z" style="fill:#000;fill-opacity:1;fill-rule:evenodd;stroke:#000;stroke-width:1.00000003pt;stroke-opacity:1" transform="translate(-4)scale(-.4)"/></marker><marker id="a" orient="auto" refX="0" refY="0" style="overflow:visible"><path d="m0 0 5-5-17.5 5L5 5Z" style="fill:#000;fill-opacity:1;fill-rule:evenodd;stroke:#000;stroke-width:1.00000003pt;stroke-opacity:1" transform="translate(-4)scale(-.4)"/></marker><marker id="o" orient="auto" refX="0" refY="0" style="overflow:visible"><path d="m0 0 5-5-17.5 5L5 5Z" style="fill:#000;fill-opacity:1;fill-rule:evenodd;stroke:#000;stroke-width:1.00000003pt;stroke-opacity:1" transform="translate(4)scale(.4)"/></marker><marker id="e" orient="auto" refX="0" refY="0" style="overflow:visible"><path d="m0 0 5-5-17.5 5L5 5Z" style="fill:#000;fill-opacity:1;fill-rule:evenodd;stroke:#000;stroke-width:1.00000003pt;stroke-opacity:1" transform="translate(4)scale(.4)"/></marker><marker id="f" orient="auto" refX="0" refY="0" style="overflow:visible"><path d="m0 0 5-5-17.5 5L5 5Z" style="fill:#000;fill-opacity:1;fill-rule:evenodd;stroke:#000;stroke-width:1.00000003pt;stroke-opacity:1" transform="translate(4)scale(.4)"/></marker><marker id="d" orient="auto" refX="0" refY="0" style="overflow:visible"><path d="m0 0 5-5-17.5 5L5 5Z" style="fill:#000;fill-opacity:1;fill-rule:evenodd;stroke:#000;stroke-width:1.00000003pt;stroke-opacity:1" transform="translate(4)scale(.4)"/></marker><marker id="i" orient="auto" refX="0" refY="0" style="overflow:visible"><path d="m0 0 5-5-17.5 5L5 5Z" style="fill:#d18362;fill-opacity:1;fill-rule:evenodd;stroke:#d18362;stroke-width:1.00000003pt;stroke-opacity:1" transform="translate(-4)scale(-.4)"/></marker><marker id="j" orient="auto" refX="0" refY="0" style="overflow:visible"><path d="m0 0 5-5-17.5 5L5 5Z" style="fill:#d18362;fill-opacity:1;fill-rule:evenodd;stroke:#d18362;stroke-width:1.00000003pt;stroke-opacity:1" transform="translate(-4)scale(-.4)"/></marker><marker id="h" orient="auto" refX="0" refY="0" style="overflow:visible"><path d="m0 0 5-5-17.5 5L5 5Z" style="fill:#d18362;fill-opacity:1;fill-rule:evenodd;stroke:#d18362;stroke-width:1.00000003pt;stroke-opacity:1" transform="translate(-4)scale(-.4)"/></marker><marker id="g" orient="auto" refX="0" refY="0" style="overflow:visible"><path d="m0 0 5-5-17.5 5L5 5Z" style="fill:#d18362;fill-opacity:1;fill-rule:evenodd;stroke:#d18362;stroke-width:1.00000003pt;stroke-opacity:1" transform="translate(4)scale(.4)"/></marker><marker id="m" orient="auto" refX="0" refY="0" style="overflow:visible"><path d="m0 0 5-5-17.5 5L5 5Z" style="fill:#000;fill-opacity:1;fill-rule:evenodd;stroke:#000;stroke-width:1.00000003pt;stroke-opacity:1" transform="translate(4)scale(.4)"/></marker><marker id="n" orient="auto" refX="0" refY="0" style="overflow:visible"><path d="m0 0 5-5-17.5 5L5 5Z" style="fill:#000;fill-opacity:1;fill-rule:evenodd;stroke:#000;stroke-width:1.00000003pt;stroke-opacity:1" transform="translate(4)scale(.4)"/></marker><marker id="c" orient="auto" refX="0" refY="0" style="overflow:visible"><path d="m0 0 5-5-17.5 5L5 5Z" style="fill:#000;fill-opacity:1;fill-rule:evenodd;stroke:#000;stroke-width:1.00000003pt;stroke-opacity:1" transform="translate(-4)scale(-.4)"/></marker><marker id="l" orient="auto" refX="0" refY="0" style="overflow:visible"><path d="m0 0 5-5-17.5 5L5 5Z" style="fill:#000;fill-opacity:1;fill-rule:evenodd;stroke:#000;stroke-width:1.00000003pt;stroke-opacity:1" transform="translate(-4)scale(-.4)"/></marker><marker id="k" orient="auto" refX="0" refY="0" style="overflow:visible"><path d="m0 0 5-5-17.5 5L5 5Z" style="fill:#000;fill-opacity:1;fill-rule:evenodd;stroke:#000;stroke-width:1.00000003pt;stroke-opacity:1" transform="translate(-4)scale(-.4)"/></marker></defs><g transform="translate(-28.146 5.264)"><g ns1:alignment="middle center" ns1:jacobian_sqrt="1.074" ns1:pdfconverter="pdf2svg" ns1:preamble="C:\\Users\\drsjd\\AppData\\Roaming\\inkscape\\extensions\\textext\\default_packages.tex" ns1:scale="3.044" ns1:texconverter="pdflatex" ns1:text="$x$" ns1:version="0.11.0" style="stroke-width:.74587257;stroke-miterlimit:4;stroke-dasharray:none"><g style="fill:#000;fill-opacity:1;stroke-width:.74587257;stroke-miterlimit:4;stroke-dasharray:none"><path d="M3.328-3.016c.063-.25.297-1.171.985-1.171.046 0 .296 0 .5.125a.58.58 0 0 0-.47.546c0 .157.11.344.376.344a.546.546 0 0 0 .531-.578c0-.516-.578-.656-.922-.656-.578 0-.922.531-1.047.75-.25-.656-.781-.75-1.078-.75-1.031 0-1.61 1.281-1.61 1.531 0 .11.11.11.126.11.078 0 .11-.032.125-.11.344-1.062 1-1.312 1.344-1.312.187 0 .53.093.53.671 0 .313-.171.97-.53 2.375-.157.61-.516 1.032-.954 1.032-.062 0-.28 0-.5-.125.25-.063.47-.266.47-.547 0-.266-.22-.344-.36-.344-.313 0-.547.25-.547.578 0 .453.484.656.922.656.672 0 1.031-.703 1.047-.75.125.36.484.75 1.078.75 1.031 0 1.594-1.28 1.594-1.53 0-.11-.079-.11-.11-.11-.094 0-.11.047-.14.11-.329 1.077-1 1.312-1.313 1.312-.39 0-.547-.313-.547-.657 0-.218.047-.437.156-.875zm0 0" style="stroke:none;stroke-width:.74587257;stroke-miterlimit:4;stroke-dasharray:none" transform="translate(31.068 20.475)scale(.40221)"/></g></g><g ns1:alignment="middle center" ns1:jacobian_sqrt="1.074" ns1:pdfconverter="pdf2svg" ns1:preamble="C:\\Users\\drsjd\\AppData\\Roaming\\inkscape\\extensions\\textext\\default_packages.tex" ns1:scale="3.044" ns1:texconverter="pdflatex" ns1:text="$y$" ns1:version="0.11.0" style="stroke-width:.74587257;stroke-miterlimit:4;stroke-dasharray:none"><g style="fill:#000;fill-opacity:1;stroke-width:.74587257;stroke-miterlimit:4;stroke-dasharray:none"><path d="M4.844-3.797c.047-.14.047-.156.047-.234 0-.172-.141-.266-.297-.266a.46.46 0 0 0-.344.203c-.016.063-.11.36-.14.547-.079.25-.141.531-.204.797L3.453-.953c-.031.14-.469.844-1.125.844-.5 0-.61-.438-.61-.813 0-.453.173-1.078.5-1.953.157-.406.204-.516.204-.719 0-.437-.313-.812-.813-.812-.953 0-1.312 1.453-1.312 1.531 0 .11.094.11.11.11.109 0 .109-.032.156-.188.28-.938.671-1.235 1.015-1.235.078 0 .25 0 .25.313 0 .25-.11.516-.172.703-.406 1.063-.578 1.625-.578 2.094 0 .89.625 1.187 1.219 1.187.39 0 .719-.171 1-.453-.125.516-.25 1.016-.64 1.547-.266.328-.641.625-1.094.625-.141 0-.594-.031-.766-.422.156 0 .297 0 .422-.125a.5.5 0 0 0 .203-.406c0-.312-.266-.344-.36-.344C.829.531.5.687.5 1.171c0 .5.438.876 1.063.876 1.015 0 2.046-.906 2.328-2.031zm0 0" style="stroke:none;stroke-width:.74587257;stroke-miterlimit:4;stroke-dasharray:none" transform="translate(92.237 20.085)scale(.40221)"/></g></g><g ns1:alignment="middle center" ns1:jacobian_sqrt=".402" ns1:pdfconverter="pdf2svg" ns1:preamble="C:\\Users\\drsjd\\AppData\\Roaming\\inkscape\\extensions\\textext\\default_packages.tex" ns1:scale="1.14" ns1:texconverter="pdflatex" ns1:text="$1$" ns1:version="0.11.0" style="stroke-width:.74587346;stroke-miterlimit:4;stroke-dasharray:none;fill:#d18362;fill-opacity:1"><g style="fill:#d18362;fill-opacity:1;stroke-width:.74587346;stroke-miterlimit:4;stroke-dasharray:none"><path d="M2.938-6.375c0-.25 0-.266-.235-.266C2.078-6 1.203-6 .891-6v.313c.203 0 .78 0 1.297-.266v5.172c0 .36-.032.469-.922.469H.953V0c.344-.031 1.203-.031 1.61-.031.39 0 1.265 0 1.609.031v-.312h-.313c-.906 0-.921-.11-.921-.47zm0 0" style="stroke:none;stroke-width:.74587346;stroke-miterlimit:4;stroke-dasharray:none;fill:#d18362;fill-opacity:1" transform="translate(61.714 1.056)scale(.40221)"/></g></g><g ns1:alignment="middle center" ns1:jacobian_sqrt=".402" ns1:pdfconverter="pdf2svg" ns1:preamble="C:\\Users\\drsjd\\AppData\\Roaming\\inkscape\\extensions\\textext\\default_packages.tex" ns1:scale="1.14" ns1:texconverter="pdflatex" ns1:text="$1$" ns1:version="0.11.0" style="stroke-width:.74587346;stroke-miterlimit:4;stroke-dasharray:none;fill:#d18362;fill-opacity:1"><g style="fill:#d18362;fill-opacity:1;stroke-width:.74587346;stroke-miterlimit:4;stroke-dasharray:none"><path d="M2.938-6.375c0-.25 0-.266-.235-.266C2.078-6 1.203-6 .891-6v.313c.203 0 .78 0 1.297-.266v5.172c0 .36-.032.469-.922.469H.953V0c.344-.031 1.203-.031 1.61-.031.39 0 1.265 0 1.609.031v-.312h-.313c-.906 0-.921-.11-.921-.47zm0 0" style="stroke:none;stroke-width:.74587346;stroke-miterlimit:4;stroke-dasharray:none;fill:#d18362;fill-opacity:1" transform="translate(31.165 10.934)scale(.40221)"/></g></g><g ns1:alignment="middle center" ns1:jacobian_sqrt="1.427" ns1:pdfconverter="pdf2svg" ns1:preamble="C:\\Users\\drsjd\\AppData\\Roaming\\inkscape\\extensions\\textext\\default_packages.tex" ns1:scale="4.045" ns1:texconverter="pdflatex" ns1:text="$h_{3}$" ns1:version="0.11.0" style="stroke-width:.74587277;stroke-miterlimit:4;stroke-dasharray:none"><g style="fill:#000;fill-opacity:1;stroke-width:.74587277;stroke-miterlimit:4;stroke-dasharray:none"><path d="M2.86-6.812s0-.11-.126-.11c-.234 0-.953.078-1.218.11-.079 0-.188.015-.188.187 0 .125.094.125.234.125.485 0 .5.063.5.172l-.03.203L.593-.391C.547-.25.547-.234.547-.17c0 .234.203.28.297.28a.41.41 0 0 0 .36-.265l.187-.75.218-.89c.063-.235.125-.454.172-.673.016-.062.11-.39.11-.453.03-.094.343-.64.687-.922.219-.156.516-.344.953-.344.422 0 .531.344.531.704 0 .53-.375 1.625-.609 2.234-.078.219-.14.344-.14.547 0 .469.359.812.828.812.937 0 1.297-1.453 1.297-1.53 0-.11-.079-.11-.11-.11-.11 0-.11.031-.156.187-.14.532-.469 1.235-1.016 1.235-.172 0-.234-.094-.234-.328 0-.25.078-.485.172-.704.156-.437.61-1.625.61-2.203 0-.64-.391-1.062-1.141-1.062-.626 0-1.11.312-1.485.765zm0 0" style="stroke:none;stroke-width:.74587277;stroke-miterlimit:4;stroke-dasharray:none" transform="translate(136.504 30.59)scale(.40221)"/></g><g style="fill:#000;fill-opacity:1;stroke-width:.74587277;stroke-miterlimit:4;stroke-dasharray:none"><path d="M1.906-2.328c.547 0 .938.375.938 1.125 0 .86-.516 1.125-.906 1.125-.282 0-.907-.078-1.188-.5.328 0 .406-.235.406-.39 0-.22-.172-.376-.39-.376a.38.38 0 0 0-.391.407C.375-.281 1.094.14 1.938.14c.968 0 1.64-.657 1.64-1.344 0-.547-.437-1.094-1.203-1.25.719-.266.984-.781.984-1.219 0-.547-.625-.953-1.406-.953-.766 0-1.36.375-1.36.938 0 .234.157.359.36.359.219 0 .36-.156.36-.344 0-.203-.141-.36-.36-.375.25-.297.719-.375.985-.375.312 0 .75.156.75.75 0 .297-.094.625-.282.828-.219.266-.422.281-.765.313-.172.015-.188.015-.22.015-.015 0-.077.016-.077.094 0 .094.062.094.187.094zm0 0" style="stroke:none;stroke-width:.74587277;stroke-miterlimit:4;stroke-dasharray:none" transform="translate(138.813 31.191)scale(.40221)"/></g></g><g ns1:alignment="middle center" ns1:jacobian_sqrt="1.074" ns1:pdfconverter="pdf2svg" ns1:preamble="C:\\Users\\drsjd\\AppData\\Roaming\\inkscape\\extensions\\textext\\default_packages.tex" ns1:scale="3.044" ns1:texconverter="pdflatex" ns1:text="$h_{1}$" ns1:version="0.11.0" style="stroke-width:.74587257;stroke-miterlimit:4;stroke-dasharray:none"><g style="fill:#000;fill-opacity:1;stroke-width:.74587257;stroke-miterlimit:4;stroke-dasharray:none"><path d="M2.86-6.812s0-.11-.126-.11c-.234 0-.953.078-1.218.11-.079 0-.188.015-.188.187 0 .125.094.125.234.125.485 0 .5.063.5.172l-.03.203L.593-.391C.547-.25.547-.234.547-.17c0 .234.203.28.297.28a.41.41 0 0 0 .36-.265l.187-.75.218-.89c.063-.235.125-.454.172-.673.016-.062.11-.39.11-.453.03-.094.343-.64.687-.922.219-.156.516-.344.953-.344.422 0 .531.344.531.704 0 .53-.375 1.625-.609 2.234-.078.219-.14.344-.14.547 0 .469.359.812.828.812.937 0 1.297-1.453 1.297-1.53 0-.11-.079-.11-.11-.11-.11 0-.11.031-.156.187-.14.532-.469 1.235-1.016 1.235-.172 0-.234-.094-.234-.328 0-.25.078-.485.172-.704.156-.437.61-1.625.61-2.203 0-.64-.391-1.062-1.141-1.062-.626 0-1.11.312-1.485.765zm0 0" style="stroke:none;stroke-width:.74587257;stroke-miterlimit:4;stroke-dasharray:none" transform="translate(136.56 10.786)scale(.40221)"/></g><g style="fill:#000;fill-opacity:1;stroke-width:.74587257;stroke-miterlimit:4;stroke-dasharray:none"><path d="M2.328-4.437c0-.188 0-.188-.203-.188-.453.438-1.078.438-1.36.438v.25c.157 0 .626 0 1-.188v3.547c0 .234 0 .328-.687.328H.812V0c.125 0 .985-.031 1.235-.031.219 0 1.094.031 1.25.031v-.25H3.03c-.703 0-.703-.094-.703-.328zm0 0" style="stroke:none;stroke-width:.74587257;stroke-miterlimit:4;stroke-dasharray:none" transform="translate(138.87 11.387)scale(.40221)"/></g></g><g ns1:alignment="middle center" ns1:jacobian_sqrt="1.074" ns1:pdfconverter="pdf2svg" ns1:preamble="C:\\Users\\drsjd\\AppData\\Roaming\\inkscape\\extensions\\textext\\default_packages.tex" ns1:scale="3.044" ns1:texconverter="pdflatex" ns1:text="$h_{2}$" ns1:version="0.11.0" style="stroke-width:.74587257;stroke-miterlimit:4;stroke-dasharray:none"><g style="fill:#000;fill-opacity:1;stroke-width:.74587257;stroke-miterlimit:4;stroke-dasharray:none"><path d="M2.86-6.812s0-.11-.126-.11c-.234 0-.953.078-1.218.11-.079 0-.188.015-.188.187 0 .125.094.125.234.125.485 0 .5.063.5.172l-.03.203L.593-.391C.547-.25.547-.234.547-.17c0 .234.203.28.297.28a.41.41 0 0 0 .36-.265l.187-.75.218-.89c.063-.235.125-.454.172-.673.016-.062.11-.39.11-.453.03-.094.343-.64.687-.922.219-.156.516-.344.953-.344.422 0 .531.344.531.704 0 .53-.375 1.625-.609 2.234-.078.219-.14.344-.14.547 0 .469.359.812.828.812.937 0 1.297-1.453 1.297-1.53 0-.11-.079-.11-.11-.11-.11 0-.11.031-.156.187-.14.532-.469 1.235-1.016 1.235-.172 0-.234-.094-.234-.328 0-.25.078-.485.172-.704.156-.437.61-1.625.61-2.203 0-.64-.391-1.062-1.141-1.062-.626 0-1.11.312-1.485.765zm0 0" style="stroke:none;stroke-width:.74587257;stroke-miterlimit:4;stroke-dasharray:none" transform="translate(136.517 20.702)scale(.40221)"/></g><g style="fill:#000;fill-opacity:1;stroke-width:.74587257;stroke-miterlimit:4;stroke-dasharray:none"><path d="M3.516-1.266H3.28c-.015.157-.094.563-.187.625-.047.047-.578.047-.688.047H1.125c.734-.64.984-.843 1.39-1.172.516-.406 1-.843 1-1.5 0-.843-.734-1.359-1.624-1.359-.86 0-1.453.61-1.453 1.25 0 .344.296.39.375.39.156 0 .359-.124.359-.374 0-.125-.047-.375-.406-.375.218-.485.687-.641 1.015-.641.703 0 1.063.547 1.063 1.11 0 .609-.438 1.078-.656 1.328L.516-.266C.437-.203.437-.187.437 0h2.876zm0 0" style="stroke:none;stroke-width:.74587257;stroke-miterlimit:4;stroke-dasharray:none" transform="translate(138.826 21.303)scale(.40221)"/></g></g><path d="m65.324 16.817-2.55 2.908-3.941.003M65.324 26.69l-2.55 2.908-3.941.004M65.324 6.556l-2.55 2.908-3.941.003" style="fill:none;stroke:#9bd7d1;stroke-width:.7;stroke-linecap:butt;stroke-linejoin:miter;stroke-miterlimit:4;stroke-dasharray:none;stroke-opacity:1"/><circle cx="32.184" cy="19.611" r="3.918" style="fill:none;fill-opacity:1;stroke:#000;stroke-width:.3;stroke-miterlimit:4;stroke-dasharray:none;stroke-dashoffset:0;stroke-opacity:1"/><circle cx="62.732" cy="19.611" r="3.918" style="fill:none;fill-opacity:1;stroke:#000;stroke-width:.3;stroke-miterlimit:4;stroke-dasharray:none;stroke-dashoffset:0;stroke-opacity:1"/><path d="m35.918 18.208 22.27-7.57" style="fill:none;stroke:#000;stroke-width:.30000001;stroke-linecap:butt;stroke-linejoin:miter;stroke-miterlimit:4;stroke-dasharray:none;stroke-opacity:1;marker-end:url(#a)"/><path d="m35.937 20.565 22.294 8.271" style="fill:none;stroke:#000;stroke-width:.30000001;stroke-linecap:butt;stroke-linejoin:miter;stroke-miterlimit:4;stroke-dasharray:none;stroke-opacity:1;marker-end:url(#b)"/><path d="m36.236 19.436 22.085-.027" style="fill:none;stroke:#000;stroke-width:.3;stroke-linecap:butt;stroke-linejoin:miter;stroke-miterlimit:4;stroke-dasharray:none;stroke-opacity:1;marker-end:url(#c)"/><path d="M88.837 18.19 66.704 9.756" style="fill:none;stroke:#000;stroke-width:.30000001;stroke-linecap:butt;stroke-linejoin:miter;stroke-miterlimit:4;stroke-dasharray:none;stroke-opacity:1;marker-start:url(#d)"/><path d="m88.808 20.882-22.2 8.453" style="fill:none;stroke:#000;stroke-width:.30000001;stroke-linecap:butt;stroke-linejoin:miter;stroke-miterlimit:4;stroke-dasharray:none;stroke-opacity:1;marker-start:url(#e)"/><path d="m88.655 19.556-22.019-.027" style="fill:none;stroke:#000;stroke-width:.30000001;stroke-linecap:butt;stroke-linejoin:miter;stroke-miterlimit:4;stroke-dasharray:none;stroke-opacity:1;marker-start:url(#f)"/><g ns1:alignment="middle center" ns1:jacobian_sqrt=".684" ns1:pdfconverter="pdf2svg" ns1:preamble="C:\\Users\\drsjd\\AppData\\Roaming\\inkscape\\extensions\\textext\\default_packages.tex" ns1:scale="1.94" ns1:texconverter="pdflatex" ns1:text="$\\phi_1$" ns1:version="0.11.0" style="fill:#000;fill-opacity:.45728646;stroke-width:.85202585;stroke-miterlimit:4;stroke-dasharray:none"><g style="fill:#000;fill-opacity:.45728646;stroke-width:.85202585;stroke-miterlimit:4;stroke-dasharray:none"><path d="M4.36-6.672c0-.031.03-.14.03-.14 0-.016 0-.11-.124-.11-.094 0-.11.031-.157.203l-.578 2.297C1.953-4.359.484-3.047.484-1.688c0 .954.704 1.735 1.922 1.813-.078.297-.156.625-.234.938-.125.468-.219.843-.219.875 0 .093.078.109.125.109s.063-.016.094-.047c.015-.016.078-.25.11-.39L2.655.124C4.266.063 5.72-1.281 5.72-2.609c0-.797-.532-1.703-1.922-1.813zM2.452-.094c-.594-.031-1.312-.39-1.312-1.375 0-1.203.859-2.593 2.343-2.734zm1.281-4.11c.766.048 1.329.5 1.329 1.376 0 1.187-.86 2.61-2.344 2.734zm0 0" style="fill:#000;fill-opacity:.45728646;stroke:none;stroke-width:.85202585;stroke-miterlimit:4;stroke-dasharray:none" transform="rotate(20.159 4.518 216.519)scale(.3521)"/></g><g style="fill:#000;fill-opacity:.45728646;stroke-width:.85202585;stroke-miterlimit:4;stroke-dasharray:none"><path d="M2.328-4.437c0-.188 0-.188-.203-.188-.453.438-1.078.438-1.36.438v.25c.157 0 .626 0 1-.188v3.547c0 .234 0 .328-.687.328H.812V0c.125 0 .985-.031 1.235-.031.219 0 1.094.031 1.25.031v-.25H3.03c-.703 0-.703-.094-.703-.328zm0 0" style="fill:#000;fill-opacity:.45728646;stroke:none;stroke-width:.85202585;stroke-miterlimit:4;stroke-dasharray:none" transform="rotate(20.159 1.993 222.135)scale(.3521)"/></g></g><g ns1:alignment="middle center" ns1:jacobian_sqrt=".684" ns1:pdfconverter="pdf2svg" ns1:preamble="C:\\Users\\drsjd\\AppData\\Roaming\\inkscape\\extensions\\textext\\default_packages.tex" ns1:scale="1.94" ns1:texconverter="pdflatex" ns1:text="$\\phi_2$" ns1:version="0.11.0" style="fill:#000;fill-opacity:.45728646;stroke-width:.85202615;stroke-miterlimit:4;stroke-dasharray:none"><g style="fill:#000;fill-opacity:.45728646;stroke-width:.85202615;stroke-miterlimit:4;stroke-dasharray:none"><path d="M4.36-6.672c0-.031.03-.14.03-.14 0-.016 0-.11-.124-.11-.094 0-.11.031-.157.203l-.578 2.297C1.953-4.359.484-3.047.484-1.688c0 .954.704 1.735 1.922 1.813-.078.297-.156.625-.234.938-.125.468-.219.843-.219.875 0 .093.078.109.125.109s.063-.016.094-.047c.015-.016.078-.25.11-.39L2.655.124C4.266.063 5.72-1.281 5.72-2.609c0-.797-.532-1.703-1.922-1.813zM2.452-.094c-.594-.031-1.312-.39-1.312-1.375 0-1.203.859-2.593 2.343-2.734zm1.281-4.11c.766.048 1.329.5 1.329 1.376 0 1.187-.86 2.61-2.344 2.734zm0 0" style="fill:#000;fill-opacity:.45728646;stroke:none;stroke-width:.85202615;stroke-miterlimit:4;stroke-dasharray:none" transform="translate(75.12 18.082)scale(.3521)"/></g><g style="fill:#000;fill-opacity:.45728646;stroke-width:.85202615;stroke-miterlimit:4;stroke-dasharray:none"><path d="M3.516-1.266H3.28c-.015.157-.094.563-.187.625-.047.047-.578.047-.688.047H1.125c.734-.64.984-.843 1.39-1.172.516-.406 1-.843 1-1.5 0-.843-.734-1.359-1.624-1.359-.86 0-1.453.61-1.453 1.25 0 .344.296.39.375.39.156 0 .359-.124.359-.374 0-.125-.047-.375-.406-.375.218-.485.687-.641 1.015-.641.703 0 1.063.547 1.063 1.11 0 .609-.438 1.078-.656 1.328L.516-.266C.437-.203.437-.187.437 0h2.876zm0 0" style="fill:#000;fill-opacity:.45728646;stroke:none;stroke-width:.85202615;stroke-miterlimit:4;stroke-dasharray:none" transform="translate(77.21 18.608)scale(.3521)"/></g></g><g ns1:alignment="middle center" ns1:jacobian_sqrt=".684" ns1:pdfconverter="pdf2svg" ns1:preamble="C:\\Users\\drsjd\\AppData\\Roaming\\inkscape\\extensions\\textext\\default_packages.tex" ns1:scale="1.94" ns1:texconverter="pdflatex" ns1:text="$\\phi_3$" ns1:version="0.11.0" style="fill:#000;fill-opacity:.45728646;stroke-width:.85202635;stroke-miterlimit:4;stroke-dasharray:none"><g style="fill:#000;fill-opacity:.45728646;stroke-width:.85202635;stroke-miterlimit:4;stroke-dasharray:none"><path d="M4.36-6.672c0-.031.03-.14.03-.14 0-.016 0-.11-.124-.11-.094 0-.11.031-.157.203l-.578 2.297C1.953-4.359.484-3.047.484-1.688c0 .954.704 1.735 1.922 1.813-.078.297-.156.625-.234.938-.125.468-.219.843-.219.875 0 .093.078.109.125.109s.063-.016.094-.047c.015-.016.078-.25.11-.39L2.655.124C4.266.063 5.72-1.281 5.72-2.609c0-.797-.532-1.703-1.922-1.813zM2.452-.094c-.594-.031-1.312-.39-1.312-1.375 0-1.203.859-2.593 2.343-2.734zm1.281-4.11c.766.048 1.329.5 1.329 1.376 0 1.187-.86 2.61-2.344 2.734zm0 0" style="fill:#000;fill-opacity:.45728646;stroke:none;stroke-width:.85202635;stroke-miterlimit:4;stroke-dasharray:none" transform="rotate(-20.553 105.257 -195.26)scale(.3521)"/></g><g style="fill:#000;fill-opacity:.45728646;stroke-width:.85202635;stroke-miterlimit:4;stroke-dasharray:none"><path d="M1.906-2.328c.547 0 .938.375.938 1.125 0 .86-.516 1.125-.906 1.125-.282 0-.907-.078-1.188-.5.328 0 .406-.235.406-.39 0-.22-.172-.376-.39-.376a.38.38 0 0 0-.391.407C.375-.281 1.094.14 1.938.14c.968 0 1.64-.657 1.64-1.344 0-.547-.437-1.094-1.203-1.25.719-.266.984-.781.984-1.219 0-.547-.625-.953-1.406-.953-.766 0-1.36.375-1.36.938 0 .234.157.359.36.359.219 0 .36-.156.36-.344 0-.203-.141-.36-.36-.375.25-.297.719-.375.985-.375.312 0 .75.156.75.75 0 .297-.094.625-.282.828-.219.266-.422.281-.765.313-.172.015-.188.015-.22.015-.015 0-.077.016-.077.094 0 .094.062.094.187.094zm0 0" style="fill:#000;fill-opacity:.45728646;stroke:none;stroke-width:.85202635;stroke-miterlimit:4;stroke-dasharray:none" transform="rotate(-20.553 105.663 -201.287)scale(.3521)"/></g></g><path d="M89.381 17.187 66.49.788" style="fill:none;stroke:#d18362;stroke-width:.30000001;stroke-linecap:butt;stroke-linejoin:miter;stroke-miterlimit:4;stroke-dasharray:none;stroke-opacity:1;marker-start:url(#g)"/><g ns1:alignment="middle center" ns1:jacobian_sqrt=".256" ns1:pdfconverter="pdf2svg" ns1:preamble="C:\\Users\\drsjd\\AppData\\Roaming\\inkscape\\extensions\\textext\\default_packages.tex" ns1:scale=".727" ns1:texconverter="pdflatex" ns1:text="$\\theta_{11}$" ns1:version="0.11.0" style="fill:#000;fill-opacity:.45728646;stroke-width:.85202725;stroke-miterlimit:4;stroke-dasharray:none"><g style="fill:#000;fill-opacity:.45728646;stroke-width:.85202725;stroke-miterlimit:4;stroke-dasharray:none"><path d="M4.531-4.984c0-.657-.172-2.047-1.187-2.047-1.39 0-2.922 2.812-2.922 5.094C.422-1 .703.108 1.609.108c1.407 0 2.922-2.859 2.922-5.093M1.47-3.625c.172-.625.375-1.422.781-2.14.266-.485.625-1.048 1.078-1.048.485 0 .547.641.547 1.204 0 .5-.078 1-.312 1.984zm2 .328c-.11.453-.313 1.297-.703 2.016-.344.687-.72 1.172-1.157 1.172-.328 0-.53-.297-.53-1.22 0-.421.062-1 .312-1.968zm0 0" style="fill:#000;fill-opacity:.45728646;stroke:none;stroke-width:.85202725;stroke-miterlimit:4;stroke-dasharray:none" transform="rotate(-20.553 61.057 -122.017)scale(.3521)"/></g><g style="fill:#000;fill-opacity:.45728646;stroke-width:.85202725;stroke-miterlimit:4;stroke-dasharray:none"><path d="M2.328-4.437c0-.188 0-.188-.203-.188-.453.438-1.078.438-1.36.438v.25c.157 0 .626 0 1-.188v3.547c0 .234 0 .328-.687.328H.812V0c.125 0 .985-.031 1.235-.031.219 0 1.094.031 1.25.031v-.25H3.03c-.703 0-.703-.094-.703-.328zm0 0" style="fill:#000;fill-opacity:.45728646;stroke:none;stroke-width:.85202725;stroke-miterlimit:4;stroke-dasharray:none" transform="rotate(-20.553 61.684 -126.822)scale(.3521)"/><path d="M2.328-4.437c0-.188 0-.188-.203-.188-.453.438-1.078.438-1.36.438v.25c.157 0 .626 0 1-.188v3.547c0 .234 0 .328-.687.328H.812V0c.125 0 .985-.031 1.235-.031.219 0 1.094.031 1.25.031v-.25H3.03c-.703 0-.703-.094-.703-.328zm0 0" style="fill:#000;fill-opacity:.45728646;stroke:none;stroke-width:.85202725;stroke-miterlimit:4;stroke-dasharray:none" transform="rotate(-20.553 60.985 -130.678)scale(.3521)"/></g></g><path d="m36.022 8.897 22.126-.018" style="fill:#d18362;fill-opacity:1;stroke:#d18362;stroke-width:.30000001;stroke-linecap:butt;stroke-linejoin:miter;stroke-miterlimit:4;stroke-dasharray:none;stroke-opacity:1;marker-end:url(#h)" transform="translate(0 .718)"/><path d="m35.611 11.652 23.165 16.082" style="fill:#d18362;fill-opacity:1;stroke:#d18362;stroke-width:.3;stroke-linecap:butt;stroke-linejoin:miter;stroke-miterlimit:4;stroke-dasharray:none;stroke-opacity:1;marker-end:url(#i)"/><path d="m36.035 10.653 22.392 7.715" style="fill:#d18362;fill-opacity:1;stroke:#d18362;stroke-width:.30000001;stroke-linecap:butt;stroke-linejoin:miter;stroke-miterlimit:4;stroke-dasharray:none;stroke-opacity:1;marker-end:url(#j)"/><circle cx="62.732" cy="-.279" r="3.918" style="fill:none;fill-opacity:1;stroke:#d18362;stroke-width:.3;stroke-miterlimit:4;stroke-dasharray:none;stroke-dashoffset:0;stroke-opacity:1"/><circle cx="93.28" cy="19.611" r="3.918" style="fill:none;fill-opacity:1;stroke:#000;stroke-width:.3;stroke-miterlimit:4;stroke-dasharray:none;stroke-dashoffset:0;stroke-opacity:1"/><circle cx="32.184" cy="9.598" r="3.918" style="fill:none;fill-opacity:1;stroke:#d18362;stroke-width:.3;stroke-miterlimit:4;stroke-dasharray:none;stroke-dashoffset:0;stroke-opacity:1"/><g ns1:alignment="middle center" ns1:jacobian_sqrt=".684" ns1:pdfconverter="pdf2svg" ns1:preamble="C:\\Users\\drsjd\\AppData\\Roaming\\inkscape\\extensions\\textext\\default_packages.tex" ns1:scale="1.94" ns1:texconverter="pdflatex" ns1:text="$\\phi_0$" ns1:version="0.11.0" style="fill:#d18362;fill-opacity:1;stroke-width:.85202615;stroke-miterlimit:4;stroke-dasharray:none"><g style="fill:#d18362;fill-opacity:1;stroke-width:.85202615;stroke-miterlimit:4;stroke-dasharray:none"><path d="M4.36-6.672c0-.031.03-.14.03-.14 0-.016 0-.11-.124-.11-.094 0-.11.031-.157.203l-.578 2.297C1.953-4.359.484-3.047.484-1.688c0 .954.704 1.735 1.922 1.813-.078.297-.156.625-.234.938-.125.468-.219.843-.219.875 0 .093.078.109.125.109s.063-.016.094-.047c.015-.016.078-.25.11-.39L2.655.124C4.266.063 5.72-1.281 5.72-2.609c0-.797-.532-1.703-1.922-1.813zM2.452-.094c-.594-.031-1.312-.39-1.312-1.375 0-1.203.859-2.593 2.343-2.734zm1.281-4.11c.766.048 1.329.5 1.329 1.376 0 1.187-.86 2.61-2.344 2.734zm0 0" style="fill:#d18362;fill-opacity:1;stroke:none;stroke-width:.85202615;stroke-miterlimit:4;stroke-dasharray:none" transform="rotate(30 27.99 142.237)scale(.3521)"/></g><g style="fill:#d18362;fill-opacity:1;stroke-width:.85202615;stroke-miterlimit:4;stroke-dasharray:none"><path d="M3.594-2.219c0-.765-.094-1.328-.406-1.812-.22-.313-.657-.594-1.204-.594C.36-4.625.36-2.719.36-2.219s0 2.36 1.625 2.36c1.61 0 1.61-1.86 1.61-2.36M1.984-.062c-.328 0-.75-.188-.89-.75C1-1.22 1-1.797 1-2.312c0-.516 0-1.047.094-1.422.156-.547.593-.703.89-.703.375 0 .735.234.86.64.11.375.125.875.125 1.485 0 .515 0 1.03-.094 1.468-.14.64-.61.782-.89.782m0 0" style="fill:#d18362;fill-opacity:1;stroke:none;stroke-width:.85202615;stroke-miterlimit:4;stroke-dasharray:none" transform="rotate(30 25.963 145.874)scale(.3521)"/></g></g><circle cx="107.94" cy="19.611" r="3.918" style="fill:none;fill-opacity:1;stroke:#000;stroke-width:.3;stroke-miterlimit:4;stroke-dasharray:none;stroke-dashoffset:0;stroke-opacity:1"/><circle cx="138.488" cy="9.695" r="3.918" style="fill:none;fill-opacity:1;stroke:#000;stroke-width:.3;stroke-miterlimit:4;stroke-dasharray:none;stroke-dashoffset:0;stroke-opacity:1"/><circle cx="138.488" cy="19.611" r="3.918" style="fill:none;fill-opacity:1;stroke:#000;stroke-width:.3;stroke-miterlimit:4;stroke-dasharray:none;stroke-dashoffset:0;stroke-opacity:1"/><path d="m111.779 18.711 22.377-8.57" style="fill:none;stroke:#000;stroke-width:.3;stroke-linecap:butt;stroke-linejoin:miter;stroke-miterlimit:4;stroke-dasharray:none;stroke-opacity:1;marker-end:url(#k)"/><path d="m111.794 20.298 22.46 8.572" style="fill:none;stroke:#000;stroke-width:.3;stroke-linecap:butt;stroke-linejoin:miter;stroke-miterlimit:4;stroke-dasharray:none;stroke-opacity:1;marker-end:url(#l)"/><path d="m111.992 19.436 22.085-.027" style="fill:none;stroke:#000;stroke-width:.3;stroke-linecap:butt;stroke-linejoin:miter;stroke-miterlimit:4;stroke-dasharray:none;stroke-opacity:1;marker-end:url(#c)"/><path d="M164.633 18.226 142.46 9.755" style="fill:none;stroke:#000;stroke-width:.30000001;stroke-linecap:butt;stroke-linejoin:miter;stroke-miterlimit:4;stroke-dasharray:none;stroke-opacity:1;marker-start:url(#m)"/><path d="m164.537 20.887-22.173 8.448" style="fill:none;stroke:#000;stroke-width:.30000001;stroke-linecap:butt;stroke-linejoin:miter;stroke-miterlimit:4;stroke-dasharray:none;stroke-opacity:1;marker-start:url(#n)"/><path d="m164.43 19.58-22.037-.051" style="fill:none;stroke:#000;stroke-width:.30000001;stroke-linecap:butt;stroke-linejoin:miter;stroke-miterlimit:4;stroke-dasharray:none;stroke-opacity:1;marker-start:url(#o)"/><g ns1:alignment="middle center" ns1:jacobian_sqrt="1.074" ns1:pdfconverter="pdf2svg" ns1:preamble="C:\\Users\\drsjd\\AppData\\Roaming\\inkscape\\extensions\\textext\\default_packages.tex" ns1:scale="3.044" ns1:texconverter="pdflatex" ns1:text="$x$" ns1:version="0.11.0" style="stroke-width:.74587257;stroke-miterlimit:4;stroke-dasharray:none"><g style="fill:#000;fill-opacity:1;stroke-width:.74587257;stroke-miterlimit:4;stroke-dasharray:none"><path d="M3.328-3.016c.063-.25.297-1.171.985-1.171.046 0 .296 0 .5.125a.58.58 0 0 0-.47.546c0 .157.11.344.376.344a.546.546 0 0 0 .531-.578c0-.516-.578-.656-.922-.656-.578 0-.922.531-1.047.75-.25-.656-.781-.75-1.078-.75-1.031 0-1.61 1.281-1.61 1.531 0 .11.11.11.126.11.078 0 .11-.032.125-.11.344-1.062 1-1.312 1.344-1.312.187 0 .53.093.53.671 0 .313-.171.97-.53 2.375-.157.61-.516 1.032-.954 1.032-.062 0-.28 0-.5-.125.25-.063.47-.266.47-.547 0-.266-.22-.344-.36-.344-.313 0-.547.25-.547.578 0 .453.484.656.922.656.672 0 1.031-.703 1.047-.75.125.36.484.75 1.078.75 1.031 0 1.594-1.28 1.594-1.53 0-.11-.079-.11-.11-.11-.094 0-.11.047-.14.11-.329 1.077-1 1.312-1.313 1.312-.39 0-.547-.313-.547-.657 0-.218.047-.437.156-.875zm0 0" style="stroke:none;stroke-width:.74587257;stroke-miterlimit:4;stroke-dasharray:none" transform="translate(106.824 20.475)scale(.40221)"/></g></g><g ns1:alignment="middle center" ns1:jacobian_sqrt="1.074" ns1:pdfconverter="pdf2svg" ns1:preamble="C:\\Users\\drsjd\\AppData\\Roaming\\inkscape\\extensions\\textext\\default_packages.tex" ns1:scale="3.044" ns1:texconverter="pdflatex" ns1:text="$y$" ns1:version="0.11.0" style="stroke-width:.74587257;stroke-miterlimit:4;stroke-dasharray:none"><g style="fill:#000;fill-opacity:1;stroke-width:.74587257;stroke-miterlimit:4;stroke-dasharray:none"><path d="M4.844-3.797c.047-.14.047-.156.047-.234 0-.172-.141-.266-.297-.266a.46.46 0 0 0-.344.203c-.016.063-.11.36-.14.547-.079.25-.141.531-.204.797L3.453-.953c-.031.14-.469.844-1.125.844-.5 0-.61-.438-.61-.813 0-.453.173-1.078.5-1.953.157-.406.204-.516.204-.719 0-.437-.313-.812-.813-.812-.953 0-1.312 1.453-1.312 1.531 0 .11.094.11.11.11.109 0 .109-.032.156-.188.28-.938.671-1.235 1.015-1.235.078 0 .25 0 .25.313 0 .25-.11.516-.172.703-.406 1.063-.578 1.625-.578 2.094 0 .89.625 1.187 1.219 1.187.39 0 .719-.171 1-.453-.125.516-.25 1.016-.64 1.547-.266.328-.641.625-1.094.625-.141 0-.594-.031-.766-.422.156 0 .297 0 .422-.125a.5.5 0 0 0 .203-.406c0-.312-.266-.344-.36-.344C.829.531.5.687.5 1.171c0 .5.438.876 1.063.876 1.015 0 2.046-.906 2.328-2.031zm0 0" style="stroke:none;stroke-width:.74587257;stroke-miterlimit:4;stroke-dasharray:none" transform="translate(167.993 20.085)scale(.40221)"/></g></g><circle cx="169.036" cy="19.611" r="3.918" style="fill:none;fill-opacity:1;stroke:#000;stroke-width:.3;stroke-miterlimit:4;stroke-dasharray:none;stroke-dashoffset:0;stroke-opacity:1"/><circle cx="138.488" cy="29.527" r="3.918" style="fill:none;fill-opacity:1;stroke:#000;stroke-width:.3;stroke-miterlimit:4;stroke-dasharray:none;stroke-dashoffset:0;stroke-opacity:1"/><circle cx="138.488" cy="19.611" r="3.918" style="fill:none;fill-opacity:1;stroke:#000;stroke-width:.3;stroke-miterlimit:4;stroke-dasharray:none;stroke-dashoffset:0;stroke-opacity:1"/><g ns1:alignment="middle center" ns1:jacobian_sqrt="1.074" ns1:pdfconverter="pdf2svg" ns1:preamble="C:\\Users\\drsjd\\AppData\\Roaming\\inkscape\\extensions\\textext\\default_packages.tex" ns1:scale="3.044" ns1:texconverter="pdflatex" ns1:text="$h_{1}$" ns1:version="0.11.0" style="stroke-width:.74587257;stroke-miterlimit:4;stroke-dasharray:none"><g style="fill:#000;fill-opacity:1;stroke-width:.74587257;stroke-miterlimit:4;stroke-dasharray:none"><path d="M2.86-6.812s0-.11-.126-.11c-.234 0-.953.078-1.218.11-.079 0-.188.015-.188.187 0 .125.094.125.234.125.485 0 .5.063.5.172l-.03.203L.593-.391C.547-.25.547-.234.547-.17c0 .234.203.28.297.28a.41.41 0 0 0 .36-.265l.187-.75.218-.89c.063-.235.125-.454.172-.673.016-.062.11-.39.11-.453.03-.094.343-.64.687-.922.219-.156.516-.344.953-.344.422 0 .531.344.531.704 0 .53-.375 1.625-.609 2.234-.078.219-.14.344-.14.547 0 .469.359.812.828.812.937 0 1.297-1.453 1.297-1.53 0-.11-.079-.11-.11-.11-.11 0-.11.031-.156.187-.14.532-.469 1.235-1.016 1.235-.172 0-.234-.094-.234-.328 0-.25.078-.485.172-.704.156-.437.61-1.625.61-2.203 0-.64-.391-1.062-1.141-1.062-.626 0-1.11.312-1.485.765zm0 0" style="stroke:none;stroke-width:.74587257;stroke-miterlimit:4;stroke-dasharray:none" transform="translate(60.804 10.786)scale(.40221)"/></g><g style="fill:#000;fill-opacity:1;stroke-width:.74587257;stroke-miterlimit:4;stroke-dasharray:none"><path d="M2.328-4.437c0-.188 0-.188-.203-.188-.453.438-1.078.438-1.36.438v.25c.157 0 .626 0 1-.188v3.547c0 .234 0 .328-.687.328H.812V0c.125 0 .985-.031 1.235-.031.219 0 1.094.031 1.25.031v-.25H3.03c-.703 0-.703-.094-.703-.328zm0 0" style="stroke:none;stroke-width:.74587257;stroke-miterlimit:4;stroke-dasharray:none" transform="translate(63.113 11.387)scale(.40221)"/></g></g><circle cx="62.732" cy="9.695" r="3.918" style="fill:none;fill-opacity:1;stroke:#000;stroke-width:.3;stroke-miterlimit:4;stroke-dasharray:none;stroke-dashoffset:0;stroke-opacity:1"/><g ns1:alignment="middle center" ns1:jacobian_sqrt="1.074" ns1:pdfconverter="pdf2svg" ns1:preamble="C:\\Users\\drsjd\\AppData\\Roaming\\inkscape\\extensions\\textext\\default_packages.tex" ns1:scale="3.044" ns1:texconverter="pdflatex" ns1:text="$h_{2}$" ns1:version="0.11.0" style="stroke-width:.74587257;stroke-miterlimit:4;stroke-dasharray:none"><g style="fill:#000;fill-opacity:1;stroke-width:.74587257;stroke-miterlimit:4;stroke-dasharray:none"><path d="M2.86-6.812s0-.11-.126-.11c-.234 0-.953.078-1.218.11-.079 0-.188.015-.188.187 0 .125.094.125.234.125.485 0 .5.063.5.172l-.03.203L.593-.391C.547-.25.547-.234.547-.17c0 .234.203.28.297.28a.41.41 0 0 0 .36-.265l.187-.75.218-.89c.063-.235.125-.454.172-.673.016-.062.11-.39.11-.453.03-.094.343-.64.687-.922.219-.156.516-.344.953-.344.422 0 .531.344.531.704 0 .53-.375 1.625-.609 2.234-.078.219-.14.344-.14.547 0 .469.359.812.828.812.937 0 1.297-1.453 1.297-1.53 0-.11-.079-.11-.11-.11-.11 0-.11.031-.156.187-.14.532-.469 1.235-1.016 1.235-.172 0-.234-.094-.234-.328 0-.25.078-.485.172-.704.156-.437.61-1.625.61-2.203 0-.64-.391-1.062-1.141-1.062-.626 0-1.11.312-1.485.765zm0 0" style="stroke:none;stroke-width:.74587257;stroke-miterlimit:4;stroke-dasharray:none" transform="translate(60.76 20.702)scale(.40221)"/></g><g style="fill:#000;fill-opacity:1;stroke-width:.74587257;stroke-miterlimit:4;stroke-dasharray:none"><path d="M3.516-1.266H3.28c-.015.157-.094.563-.187.625-.047.047-.578.047-.688.047H1.125c.734-.64.984-.843 1.39-1.172.516-.406 1-.843 1-1.5 0-.843-.734-1.359-1.624-1.359-.86 0-1.453.61-1.453 1.25 0 .344.296.39.375.39.156 0 .359-.124.359-.374 0-.125-.047-.375-.406-.375.218-.485.687-.641 1.015-.641.703 0 1.063.547 1.063 1.11 0 .609-.438 1.078-.656 1.328L.516-.266C.437-.203.437-.187.437 0h2.876zm0 0" style="stroke:none;stroke-width:.74587257;stroke-miterlimit:4;stroke-dasharray:none" transform="translate(63.069 21.303)scale(.40221)"/></g></g><circle cx="62.732" cy="19.611" r="3.918" style="fill:none;fill-opacity:1;stroke:#000;stroke-width:.3;stroke-miterlimit:4;stroke-dasharray:none;stroke-dashoffset:0;stroke-opacity:1"/><g ns1:alignment="middle center" ns1:jacobian_sqrt="1.427" ns1:pdfconverter="pdf2svg" ns1:preamble="C:\\Users\\drsjd\\AppData\\Roaming\\inkscape\\extensions\\textext\\default_packages.tex" ns1:scale="4.045" ns1:texconverter="pdflatex" ns1:text="$h_{3}$" ns1:version="0.11.0" style="stroke-width:.74587277;stroke-miterlimit:4;stroke-dasharray:none"><g style="fill:#000;fill-opacity:1;stroke-width:.74587277;stroke-miterlimit:4;stroke-dasharray:none"><path d="M2.86-6.812s0-.11-.126-.11c-.234 0-.953.078-1.218.11-.079 0-.188.015-.188.187 0 .125.094.125.234.125.485 0 .5.063.5.172l-.03.203L.593-.391C.547-.25.547-.234.547-.17c0 .234.203.28.297.28a.41.41 0 0 0 .36-.265l.187-.75.218-.89c.063-.235.125-.454.172-.673.016-.062.11-.39.11-.453.03-.094.343-.64.687-.922.219-.156.516-.344.953-.344.422 0 .531.344.531.704 0 .53-.375 1.625-.609 2.234-.078.219-.14.344-.14.547 0 .469.359.812.828.812.937 0 1.297-1.453 1.297-1.53 0-.11-.079-.11-.11-.11-.11 0-.11.031-.156.187-.14.532-.469 1.235-1.016 1.235-.172 0-.234-.094-.234-.328 0-.25.078-.485.172-.704.156-.437.61-1.625.61-2.203 0-.64-.391-1.062-1.141-1.062-.626 0-1.11.312-1.485.765zm0 0" style="stroke:none;stroke-width:.74587277;stroke-miterlimit:4;stroke-dasharray:none" transform="translate(60.748 30.59)scale(.40221)"/></g><g style="fill:#000;fill-opacity:1;stroke-width:.74587277;stroke-miterlimit:4;stroke-dasharray:none"><path d="M1.906-2.328c.547 0 .938.375.938 1.125 0 .86-.516 1.125-.906 1.125-.282 0-.907-.078-1.188-.5.328 0 .406-.235.406-.39 0-.22-.172-.376-.39-.376a.38.38 0 0 0-.391.407C.375-.281 1.094.14 1.938.14c.968 0 1.64-.657 1.64-1.344 0-.547-.437-1.094-1.203-1.25.719-.266.984-.781.984-1.219 0-.547-.625-.953-1.406-.953-.766 0-1.36.375-1.36.938 0 .234.157.359.36.359.219 0 .36-.156.36-.344 0-.203-.141-.36-.36-.375.25-.297.719-.375.985-.375.312 0 .75.156.75.75 0 .297-.094.625-.282.828-.219.266-.422.281-.765.313-.172.015-.188.015-.22.015-.015 0-.077.016-.077.094 0 .094.062.094.187.094zm0 0" style="stroke:none;stroke-width:.74587277;stroke-miterlimit:4;stroke-dasharray:none" transform="translate(63.056 31.191)scale(.40221)"/></g></g><circle cx="62.732" cy="29.527" r="3.918" style="fill:none;fill-opacity:1;stroke:#000;stroke-width:.3;stroke-miterlimit:4;stroke-dasharray:none;stroke-dashoffset:0;stroke-opacity:1"/><g ns1:alignment="middle center" ns1:jacobian_sqrt=".352" ns1:pdfconverter="pdf2svg" ns1:preamble="C:\\Users\\drsjd\\AppData\\Roaming\\inkscape\\extensions\\textext\\default_packages.tex" ns1:scale=".998" ns1:texconverter="pdflatex" ns1:text="$\\theta_{10}$" ns1:version="0.11.0" style="fill:#d18362;fill-opacity:1"><g style="fill-opacity:1;fill:#d18362"><path d="M4.531-4.984c0-.657-.172-2.047-1.187-2.047-1.39 0-2.922 2.812-2.922 5.094C.422-1 .703.108 1.609.108c1.407 0 2.922-2.859 2.922-5.093M1.47-3.625c.172-.625.375-1.422.781-2.14.266-.485.625-1.048 1.078-1.048.485 0 .547.641.547 1.204 0 .5-.078 1-.312 1.984Zm2 .328c-.11.453-.313 1.297-.703 2.016-.344.687-.72 1.172-1.157 1.172-.328 0-.53-.297-.53-1.22 0-.421.062-1 .312-1.968Zm0 0" style="fill-opacity:1;stroke:none;stroke-width:0;fill:#d18362" transform="translate(52.113 7.73)scale(.3521)"/></g><g style="fill-opacity:1;fill:#d18362"><path d="M2.328-4.437c0-.188 0-.188-.203-.188-.453.438-1.078.438-1.36.438v.25c.157 0 .626 0 1-.188v3.547c0 .234 0 .328-.687.328H.812V0c.125 0 .985-.031 1.235-.031.219 0 1.094.031 1.25.031v-.25H3.03c-.703 0-.703-.094-.703-.328Zm0 0" style="fill-opacity:1;stroke:none;stroke-width:0;fill:#d18362" transform="translate(53.76 8.256)scale(.3521)"/><path d="M3.594-2.219c0-.765-.094-1.328-.406-1.812-.22-.313-.657-.594-1.204-.594C.36-4.625.36-2.719.36-2.219s0 2.36 1.625 2.36c1.61 0 1.61-1.86 1.61-2.36M1.984-.062c-.328 0-.75-.188-.89-.75C1-1.22 1-1.797 1-2.312c0-.516 0-1.047.094-1.422.156-.547.593-.703.89-.703.375 0 .735.234.86.64.11.375.125.875.125 1.485 0 .515 0 1.03-.094 1.468-.14.64-.61.782-.89.782m0 0" style="fill-opacity:1;stroke:none;stroke-width:0;fill:#d18362" transform="translate(55.158 8.256)scale(.3521)"/></g></g><g ns1:alignment="middle center" ns1:jacobian_sqrt=".352" ns1:pdfconverter="pdf2svg" ns1:preamble="C:\\Users\\drsjd\\AppData\\Roaming\\inkscape\\extensions\\textext\\default_packages.tex" ns1:scale=".998" ns1:texconverter="pdflatex" ns1:text="$\\theta_{20}$" ns1:version="0.11.0" style="fill:#d18362;fill-opacity:1"><g style="fill-opacity:1;fill:#d18362"><path d="M4.531-4.984c0-.657-.172-2.047-1.187-2.047-1.39 0-2.922 2.812-2.922 5.094C.422-1 .703.108 1.609.108c1.407 0 2.922-2.859 2.922-5.093M1.47-3.625c.172-.625.375-1.422.781-2.14.266-.485.625-1.048 1.078-1.048.485 0 .547.641.547 1.204 0 .5-.078 1-.312 1.984Zm2 .328c-.11.453-.313 1.297-.703 2.016-.344.687-.72 1.172-1.157 1.172-.328 0-.53-.297-.53-1.22 0-.421.062-1 .312-1.968Zm0 0" style="fill-opacity:1;stroke:none;stroke-width:0;fill:#d18362" transform="rotate(17.16 -24.432 180.983)scale(.3521)"/></g><g style="fill-opacity:1;fill:#d18362"><path d="M3.516-1.266H3.28c-.015.157-.094.563-.187.625-.047.047-.578.047-.688.047H1.125c.734-.64.984-.843 1.39-1.172.516-.406 1-.843 1-1.5 0-.843-.734-1.359-1.624-1.359-.86 0-1.453.61-1.453 1.25 0 .344.296.39.375.39.156 0 .359-.124.359-.374 0-.125-.047-.375-.406-.375.218-.485.687-.641 1.015-.641.703 0 1.063.547 1.063 1.11 0 .609-.438 1.078-.656 1.328L.516-.266C.437-.203.437-.187.437 0h2.876Zm0 0" style="fill-opacity:1;stroke:none;stroke-width:0;fill:#d18362" transform="rotate(17.16 -26.999 186.177)scale(.3521)"/><path d="M3.594-2.219c0-.765-.094-1.328-.406-1.812-.22-.313-.657-.594-1.204-.594C.36-4.625.36-2.719.36-2.219s0 2.36 1.625 2.36c1.61 0 1.61-1.86 1.61-2.36M1.984-.062c-.328 0-.75-.188-.89-.75C1-1.22 1-1.797 1-2.312c0-.516 0-1.047.094-1.422.156-.547.593-.703.89-.703.375 0 .735.234.86.64.11.375.125.875.125 1.485 0 .515 0 1.03-.094 1.468-.14.64-.61.782-.89.782m0 0" style="fill-opacity:1;stroke:none;stroke-width:0;fill:#d18362" transform="rotate(17.16 -27.698 190.811)scale(.3521)"/></g></g><g ns1:alignment="middle center" ns1:jacobian_sqrt=".352" ns1:pdfconverter="pdf2svg" ns1:preamble="C:\\Users\\drsjd\\AppData\\Roaming\\inkscape\\extensions\\textext\\default_packages.tex" ns1:scale=".998" ns1:texconverter="pdflatex" ns1:text="$\\theta_{30}$" ns1:version="0.11.0" style="fill:#d18362;fill-opacity:1"><g style="fill-opacity:1;fill:#d18362"><path d="M4.531-4.984c0-.657-.172-2.047-1.187-2.047-1.39 0-2.922 2.812-2.922 5.094C.422-1 .703.108 1.609.108c1.407 0 2.922-2.859 2.922-5.093M1.47-3.625c.172-.625.375-1.422.781-2.14.266-.485.625-1.048 1.078-1.048.485 0 .547.641.547 1.204 0 .5-.078 1-.312 1.984Zm2 .328c-.11.453-.313 1.297-.703 2.016-.344.687-.72 1.172-1.157 1.172-.328 0-.53-.297-.53-1.22 0-.421.062-1 .312-1.968Zm0 0" style="fill-opacity:1;stroke:none;stroke-width:0;fill:#d18362" transform="rotate(33.386 -11.065 99.496)scale(.3521)"/></g><g style="fill-opacity:1;fill:#d18362"><path d="M1.906-2.328c.547 0 .938.375.938 1.125 0 .86-.516 1.125-.906 1.125-.282 0-.907-.078-1.188-.5.328 0 .406-.235.406-.39 0-.22-.172-.376-.39-.376a.38.38 0 0 0-.391.407C.375-.281 1.094.14 1.938.14c.968 0 1.64-.657 1.64-1.344 0-.547-.437-1.094-1.203-1.25.719-.266.984-.781.984-1.219 0-.547-.625-.953-1.406-.953-.766 0-1.36.375-1.36.938 0 .234.157.359.36.359.219 0 .36-.156.36-.344 0-.203-.141-.36-.36-.375.25-.297.719-.375.985-.375.312 0 .75.156.75.75 0 .297-.094.625-.282.828-.219.266-.422.281-.765.313-.172.015-.188.015-.22.015-.015 0-.077.016-.077.094 0 .094.062.094.187.094Zm0 0" style="fill-opacity:1;stroke:none;stroke-width:0;fill:#d18362" transform="rotate(33.386 -12.765 101.978)scale(.3521)"/><path d="M3.594-2.219c0-.765-.094-1.328-.406-1.812-.22-.313-.657-.594-1.204-.594C.36-4.625.36-2.719.36-2.219s0 2.36 1.625 2.36c1.61 0 1.61-1.86 1.61-2.36M1.984-.062c-.328 0-.75-.188-.89-.75C1-1.22 1-1.797 1-2.312c0-.516 0-1.047.094-1.422.156-.547.593-.703.89-.703.375 0 .735.234.86.64.11.375.125.875.125 1.485 0 .515 0 1.03-.094 1.468-.14.64-.61.782-.89.782m0 0" style="fill-opacity:1;stroke:none;stroke-width:0;fill:#d18362" transform="rotate(33.386 -13.464 104.31)scale(.3521)"/></g></g><g ns1:alignment="middle center" ns1:jacobian_sqrt=".352" ns1:pdfconverter="pdf2svg" ns1:preamble="C:\\Users\\drsjd\\AppData\\Roaming\\inkscape\\extensions\\textext\\default_packages.tex" ns1:scale=".998" ns1:texconverter="pdflatex" ns1:text="$\\theta_{21}$" ns1:version="0.11.0" style="fill:#000;fill-opacity:.45728646"><g style="fill-opacity:.45728646;fill:#000"><path d="M4.531-4.984c0-.657-.172-2.047-1.187-2.047-1.39 0-2.922 2.812-2.922 5.094C.422-1 .703.108 1.609.108c1.407 0 2.922-2.859 2.922-5.093M1.47-3.625c.172-.625.375-1.422.781-2.14.266-.485.625-1.048 1.078-1.048.485 0 .547.641.547 1.204 0 .5-.078 1-.312 1.984Zm2 .328c-.11.453-.313 1.297-.703 2.016-.344.687-.72 1.172-1.157 1.172-.328 0-.53-.297-.53-1.22 0-.421.062-1 .312-1.968Zm0 0" style="fill-opacity:.45728646;stroke:none;stroke-width:0;fill:#000" transform="translate(46.554 18.332)scale(.3521)"/></g><g style="fill-opacity:.45728646;fill:#000"><path d="M3.516-1.266H3.28c-.015.157-.094.563-.187.625-.047.047-.578.047-.688.047H1.125c.734-.64.984-.843 1.39-1.172.516-.406 1-.843 1-1.5 0-.843-.734-1.359-1.624-1.359-.86 0-1.453.61-1.453 1.25 0 .344.296.39.375.39.156 0 .359-.124.359-.374 0-.125-.047-.375-.406-.375.218-.485.687-.641 1.015-.641.703 0 1.063.547 1.063 1.11 0 .609-.438 1.078-.656 1.328L.516-.266C.437-.203.437-.187.437 0h2.876Zm0 0" style="fill-opacity:.45728646;stroke:none;stroke-width:0;fill:#000" transform="translate(48.2 18.858)scale(.3521)"/><path d="M2.328-4.437c0-.188 0-.188-.203-.188-.453.438-1.078.438-1.36.438v.25c.157 0 .626 0 1-.188v3.547c0 .234 0 .328-.687.328H.812V0c.125 0 .985-.031 1.235-.031.219 0 1.094.031 1.25.031v-.25H3.03c-.703 0-.703-.094-.703-.328Zm0 0" style="fill-opacity:.45728646;stroke:none;stroke-width:0;fill:#000" transform="translate(49.6 18.858)scale(.3521)"/></g></g><g ns1:alignment="middle center" ns1:jacobian_sqrt=".352" ns1:pdfconverter="pdf2svg" ns1:preamble="C:\\Users\\drsjd\\AppData\\Roaming\\inkscape\\extensions\\textext\\default_packages.tex" ns1:scale=".998" ns1:texconverter="pdflatex" ns1:text="$\\theta_{31}$" ns1:version="0.11.0" style="fill:#000;fill-opacity:.45728646"><g style="fill-opacity:.45728646;fill:#000"><path d="M4.531-4.984c0-.657-.172-2.047-1.187-2.047-1.39 0-2.922 2.812-2.922 5.094C.422-1 .703.108 1.609.108c1.407 0 2.922-2.859 2.922-5.093M1.47-3.625c.172-.625.375-1.422.781-2.14.266-.485.625-1.048 1.078-1.048.485 0 .547.641.547 1.204 0 .5-.078 1-.312 1.984Zm2 .328c-.11.453-.313 1.297-.703 2.016-.344.687-.72 1.172-1.157 1.172-.328 0-.53-.297-.53-1.22 0-.421.062-1 .312-1.968Zm0 0" style="fill-opacity:.45728646;stroke:none;stroke-width:0;fill:#000" transform="rotate(20.158 -42.091 141.906)scale(.3521)"/></g><g style="fill-opacity:.45728646;fill:#000"><path d="M1.906-2.328c.547 0 .938.375.938 1.125 0 .86-.516 1.125-.906 1.125-.282 0-.907-.078-1.188-.5.328 0 .406-.235.406-.39 0-.22-.172-.376-.39-.376a.38.38 0 0 0-.391.407C.375-.281 1.094.14 1.938.14c.968 0 1.64-.657 1.64-1.344 0-.547-.437-1.094-1.203-1.25.719-.266.984-.781.984-1.219 0-.547-.625-.953-1.406-.953-.766 0-1.36.375-1.36.938 0 .234.157.359.36.359.219 0 .36-.156.36-.344 0-.203-.141-.36-.36-.375.25-.297.719-.375.985-.375.312 0 .75.156.75.75 0 .297-.094.625-.282.828-.219.266-.422.281-.765.313-.172.015-.188.015-.22.015-.015 0-.077.016-.077.094 0 .094.062.094.187.094Zm0 0" style="fill-opacity:.45728646;stroke:none;stroke-width:0;fill:#000" transform="rotate(20.158 -44.394 146.276)scale(.3521)"/><path d="M2.328-4.437c0-.188 0-.188-.203-.188-.453.438-1.078.438-1.36.438v.25c.157 0 .626 0 1-.188v3.547c0 .234 0 .328-.687.328H.812V0c.125 0 .985-.031 1.235-.031.219 0 1.094.031 1.25.031v-.25H3.03c-.703 0-.703-.094-.703-.328Zm0 0" style="fill-opacity:.45728646;stroke:none;stroke-width:0;fill:#000" transform="rotate(20.158 -45.093 150.21)scale(.3521)"/></g></g><g ns1:alignment="middle center" ns1:inkscapeversion="0.92.3" ns1:jacobian_sqrt=".447" ns1:pdfconverter="inkscape" ns1:preamble="/Users/simonprince/Library/Application Support/org.inkscape.Inkscape/config/inkscape/extensions/textext/default_packages_simon.tex" ns1:scale="1.267" ns1:stroke-to-path="0" ns1:texconverter="pdflatex" ns1:text="a)" ns1:version="1.8.1" style="fill:#000;fill-opacity:1;stroke-width:0"><g style="fill:#000;fill-opacity:1;stroke-width:0"><path d="M3.984-2.875c0-1.016-.734-1.719-1.656-1.719-.64 0-1.094.157-1.562.422l.062.656A2.54 2.54 0 0 1 2.328-4c.469 0 .875.39.875 1.125v.438C1.703-2.422.438-2 .438-1.125c0 .422.265 1.234 1.14 1.234.14 0 1.078-.015 1.656-.468V0h.75zm-.78 1.563c0 .187 0 .437-.345.625-.28.171-.671.187-.78.187-.47 0-.923-.234-.923-.64 0-.704 1.61-.766 2.047-.798zm0 0" style="fill:#000;fill-opacity:1;stroke:#000;stroke-width:0" transform="translate(28.184 -1.811)scale(.44687)"/></g><g style="fill:#000;fill-opacity:1;stroke-width:0"><path d="M1.172 2.5c.312-.312.984-.922 1.437-2.14.407-1.063.47-2.126.47-2.86 0-3.219-1.438-4.531-1.907-4.984h-.61C1.033-7 2.298-5.72 2.298-2.5c0 .563-.031 1.734-.438 2.906A5.4 5.4 0 0 1 .563 2.5Zm0 0" style="fill:#000;fill-opacity:1;stroke:#000;stroke-width:0" transform="translate(30.323 -1.811)scale(.44687)"/></g></g><g ns1:alignment="middle center" ns1:inkscapeversion="0.92.3" ns1:jacobian_sqrt=".447" ns1:pdfconverter="inkscape" ns1:preamble="/Users/simonprince/Library/Application Support/org.inkscape.Inkscape/config/inkscape/extensions/textext/default_packages_simon.tex" ns1:scale="1.267" ns1:stroke-to-path="0" ns1:texconverter="pdflatex" ns1:text="b)" ns1:version="1.8.1" style="fill:#000;fill-opacity:1;stroke-width:0"><g style="fill:#000;fill-opacity:1;stroke-width:0"><path d="M1.563-6.922h-.75V0h.78v-.453c.235.219.673.562 1.345.562.984 0 1.843-1 1.843-2.328 0-1.234-.672-2.312-1.61-2.312-.39 0-1.015.093-1.608.578zm.03 3.578c.157-.234.516-.578 1.063-.578C3.25-3.922 4-3.5 4-2.219 4-.922 3.172-.5 2.563-.5c-.391 0-.72-.172-.97-.64Zm0 0" style="fill:#000;fill-opacity:1;stroke:#000;stroke-width:0" transform="translate(103.62 -1.811)scale(.44687)"/></g><g style="fill:#000;fill-opacity:1;stroke-width:0"><path d="M1.172 2.5c.312-.312.984-.922 1.437-2.14.407-1.063.47-2.126.47-2.86 0-3.219-1.438-4.531-1.907-4.984h-.61C1.033-7 2.298-5.72 2.298-2.5c0 .563-.031 1.734-.438 2.906A5.4 5.4 0 0 1 .563 2.5Zm0 0" style="fill:#000;fill-opacity:1;stroke:#000;stroke-width:0" transform="translate(105.92 -1.811)scale(.44687)"/></g></g></g></svg>