<svg xmlns="http://www.w3.org/2000/svg" xmlns:ns1="http://www.iki.fi/pav/software/textext/" width="517.323" height="110.865" viewBox="0 0 136.875 29.333"><rect width="100%" height="100%" fill="#f5f5f5"/><defs><marker id="c" orient="auto" refX="0" refY="0" style="overflow:visible"><path d="m0 0 5-5-17.5 5L5 5Z" style="fill:#000;fill-opacity:1;fill-rule:evenodd;stroke:#000;stroke-width:1.00000003pt;stroke-opacity:1" transform="translate(-4)scale(-.4)"/></marker><marker id="a" orient="auto" refX="0" refY="0" style="overflow:visible"><path d="m0 0 5-5-17.5 5L5 5Z" style="fill:#000;fill-opacity:1;fill-rule:evenodd;stroke:#000;stroke-width:1.00000003pt;stroke-opacity:1" transform="translate(-4)scale(-.4)"/></marker><marker id="o" orient="auto" refX="0" refY="0" style="overflow:visible"><path d="m0 0 5-5-17.5 5L5 5Z" style="fill:#000;fill-opacity:1;fill-rule:evenodd;stroke:#000;stroke-width:1.00000003pt;stroke-opacity:1" transform="translate(4)scale(.4)"/></marker><marker id="n" orient="auto" refX="0" refY="0" style="overflow:visible"><path d="m0 0 5-5-17.5 5L5 5Z" style="fill:#000;fill-opacity:1;fill-rule:evenodd;stroke:#000;stroke-width:1.00000003pt;stroke-opacity:1" transform="translate(4)scale(.4)"/></marker><marker id="j" orient="auto" refX="0" refY="0" style="overflow:visible"><path d="m0 0 5-5-17.5 5L5 5Z" style="fill:#000;fill-opacity:1;fill-rule:evenodd;stroke:#000;stroke-width:1.00000003pt;stroke-opacity:1" transform="translate(4)scale(.4)"/></marker><marker id="k" orient="auto" refX="0" refY="0" style="overflow:visible"><path d="m0 0 5-5-17.5 5L5 5Z" style="fill:#000;fill-opacity:1;fill-rule:evenodd;stroke:#000;stroke-width:1.00000003pt;stroke-opacity:1" transform="translate(4)scale(.4)"/></marker><marker id="m" orient="auto" refX="0" refY="0" style="overflow:visible"><path d="m0 0 5-5-17.5 5L5 5Z" style="fill:#000;fill-opacity:1;fill-rule:evenodd;stroke:#000;stroke-width:1.00000003pt;stroke-opacity:1" transform="translate(4)scale(.4)"/></marker><marker id="l" orient="auto" refX="0" refY="0" style="overflow:visible"><path d="m0 0 5-5-17.5 5L5 5Z" style="fill:#000;fill-opacity:1;fill-rule:evenodd;stroke:#000;stroke-width:1.00000003pt;stroke-opacity:1" transform="translate(4)scale(.4)"/></marker><marker id="b" orient="auto" refX="0" refY="0" style="overflow:visible"><path d="m0 0 5-5-17.5 5L5 5Z" style="fill:#000;fill-opacity:1;fill-rule:evenodd;stroke:#000;stroke-width:1.00000003pt;stroke-opacity:1" transform="translate(-4)scale(-.4)"/></marker><marker id="d" orient="auto" refX="0" refY="0" style="overflow:visible"><path d="m0 0 5-5-17.5 5L5 5Z" style="fill:#000;fill-opacity:1;fill-rule:evenodd;stroke:#000;stroke-width:1.00000003pt;stroke-opacity:1" transform="translate(4)scale(.4)"/></marker><marker id="f" orient="auto" refX="0" refY="0" style="overflow:visible"><path d="m0 0 5-5-17.5 5L5 5Z" style="fill:#000;fill-opacity:1;fill-rule:evenodd;stroke:#000;stroke-width:1.00000003pt;stroke-opacity:1" transform="translate(4)scale(.4)"/></marker><marker id="e" orient="auto" refX="0" refY="0" style="overflow:visible"><path d="m0 0 5-5-17.5 5L5 5Z" style="fill:#000;fill-opacity:1;fill-rule:evenodd;stroke:#000;stroke-width:1.00000003pt;stroke-opacity:1" transform="translate(4)scale(.4)"/></marker><marker id="i" orient="auto" refX="0" refY="0" style="overflow:visible"><path d="m0 0 5-5-17.5 5L5 5Z" style="fill:#000;fill-opacity:1;fill-rule:evenodd;stroke:#000;stroke-width:1.00000003pt;stroke-opacity:1" transform="translate(-4)scale(-.4)"/></marker><marker id="h" orient="auto" refX="0" refY="0" style="overflow:visible"><path d="m0 0 5-5-17.5 5L5 5Z" style="fill:#000;fill-opacity:1;fill-rule:evenodd;stroke:#000;stroke-width:1.00000003pt;stroke-opacity:1" transform="translate(-4)scale(-.4)"/></marker><marker id="g" orient="auto" refX="0" refY="0" style="overflow:visible"><path d="m0 0 5-5-17.5 5L5 5Z" style="fill:#000;fill-opacity:1;fill-rule:evenodd;stroke:#000;stroke-width:1.00000003pt;stroke-opacity:1" transform="translate(-4)scale(-.4)"/></marker></defs><g transform="translate(-29.834 5.045)"><path d="m-131.021 248.635-2.55 2.908-3.942.003" style="fill:none;stroke:#9bd7d1;stroke-width:.69999999;stroke-linecap:butt;stroke-linejoin:miter;stroke-miterlimit:4;stroke-dasharray:none;stroke-opacity:1" transform="translate(247.148 -231.881)"/><path d="m-131.021 248.635-2.55 2.908-3.942.003" style="fill:none;stroke:#9bd7d1;stroke-width:.69999999;stroke-linecap:butt;stroke-linejoin:miter;stroke-miterlimit:4;stroke-dasharray:none;stroke-opacity:1" transform="translate(216.745 -231.881)"/><path d="m-131.021 248.635-2.55 2.908-3.942.003" style="fill:none;stroke:#9bd7d1;stroke-width:.69999999;stroke-linecap:butt;stroke-linejoin:miter;stroke-miterlimit:4;stroke-dasharray:none;stroke-opacity:1" transform="translate(247.148 -241.794)"/><path d="m-131.021 248.635-2.55 2.908-3.942.003" style="fill:none;stroke:#9bd7d1;stroke-width:.69999999;stroke-linecap:butt;stroke-linejoin:miter;stroke-miterlimit:4;stroke-dasharray:none;stroke-opacity:1" transform="translate(216.745 -241.794)"/><path d="m-131.021 248.635-2.55 2.908-3.942.003" style="fill:none;stroke:#9bd7d1;stroke-width:.69999999;stroke-linecap:butt;stroke-linejoin:miter;stroke-miterlimit:4;stroke-dasharray:none;stroke-opacity:1" transform="translate(247.148 -251.706)"/><path d="m-131.021 248.635-2.55 2.908-3.942.003" style="fill:none;stroke:#9bd7d1;stroke-width:.69999999;stroke-linecap:butt;stroke-linejoin:miter;stroke-miterlimit:4;stroke-dasharray:none;stroke-opacity:1" transform="translate(216.745 -251.706)"/><circle cx="113.485" cy="-.295" r="3.918" style="fill:none;fill-opacity:1;stroke:#000;stroke-width:.23907581;stroke-miterlimit:4;stroke-dasharray:none;stroke-dashoffset:0;stroke-opacity:1"/><circle cx="113.485" cy="9.621" r="3.918" style="fill:none;fill-opacity:1;stroke:#000;stroke-width:.23907581;stroke-miterlimit:4;stroke-dasharray:none;stroke-dashoffset:0;stroke-opacity:1"/><path d="m86.776 8.403 22.313-7.85" style="fill:none;stroke:#000;stroke-width:.23907581;stroke-linecap:butt;stroke-linejoin:miter;stroke-miterlimit:4;stroke-dasharray:none;stroke-opacity:1;marker-end:url(#a)"/><path d="m86.803 10.982 22.319 7.579" style="fill:none;stroke:#000;stroke-width:.23769103;stroke-linecap:butt;stroke-linejoin:miter;stroke-miterlimit:4;stroke-dasharray:none;stroke-opacity:1;marker-end:url(#b)"/><path d="m86.99 9.646 22.014-.027" style="fill:none;stroke:#000;stroke-width:.23907581;stroke-linecap:butt;stroke-linejoin:miter;stroke-miterlimit:4;stroke-dasharray:none;stroke-opacity:1;marker-end:url(#c)"/><path d="M139.82 8.307 117.457-.235" style="fill:none;stroke:#000;stroke-width:.23907581;stroke-linecap:butt;stroke-linejoin:miter;stroke-miterlimit:4;stroke-dasharray:none;stroke-opacity:1;marker-start:url(#d)"/><path d="m139.747 10.732-22.386 8.613" style="fill:none;stroke:#000;stroke-width:.23907581;stroke-linecap:butt;stroke-linejoin:miter;stroke-miterlimit:4;stroke-dasharray:none;stroke-opacity:1;marker-start:url(#e)"/><path d="M139.592 9.566 117.39 9.54" style="fill:none;stroke:#000;stroke-width:.24034719;stroke-linecap:butt;stroke-linejoin:miter;stroke-miterlimit:4;stroke-dasharray:none;stroke-opacity:1;marker-start:url(#f)"/><circle cx="144.034" cy="9.621" r="3.918" style="fill:none;fill-opacity:1;stroke:#000;stroke-width:.23907581;stroke-miterlimit:4;stroke-dasharray:none;stroke-dashoffset:0;stroke-opacity:1"/><circle cx="113.485" cy="19.537" r="3.918" style="fill:none;fill-opacity:1;stroke:#000;stroke-width:.23907581;stroke-miterlimit:4;stroke-dasharray:none;stroke-dashoffset:0;stroke-opacity:1"/><g ns1:alignment="middle center" ns1:jacobian_sqrt="1.427" ns1:pdfconverter="pdf2svg" ns1:preamble="C:\\Users\\drsjd\\AppData\\Roaming\\inkscape\\extensions\\textext\\default_packages.tex" ns1:scale="4.045" ns1:texconverter="pdflatex" ns1:text="$h_{3}$" ns1:version="0.11.0"><g style="fill:#000;fill-opacity:1"><path d="M2.86-6.812s0-.11-.126-.11c-.234 0-.953.078-1.218.11-.079 0-.188.015-.188.187 0 .125.094.125.234.125.485 0 .5.063.5.172l-.03.203L.593-.391C.547-.25.547-.234.547-.17c0 .234.203.28.297.28a.41.41 0 0 0 .36-.265l.187-.75.218-.89c.063-.235.125-.454.172-.673.016-.062.11-.39.11-.453.03-.094.343-.64.687-.922.219-.156.516-.344.953-.344.422 0 .531.344.531.704 0 .53-.375 1.625-.609 2.234-.078.219-.14.344-.14.547 0 .469.359.812.828.812.937 0 1.297-1.453 1.297-1.53 0-.11-.079-.11-.11-.11-.11 0-.11.031-.156.187-.14.532-.469 1.235-1.016 1.235-.172 0-.234-.094-.234-.328 0-.25.078-.485.172-.704.156-.437.61-1.625.61-2.203 0-.64-.391-1.062-1.141-1.062-.626 0-1.11.312-1.485.765zm0 0" style="stroke:none;stroke-width:0" transform="translate(81.074 20.6)scale(.40221)"/></g><g style="fill:#000;fill-opacity:1"><path d="M1.906-2.328c.547 0 .938.375.938 1.125 0 .86-.516 1.125-.906 1.125-.282 0-.907-.078-1.188-.5.328 0 .406-.235.406-.39 0-.22-.172-.376-.39-.376a.38.38 0 0 0-.391.407C.375-.281 1.094.14 1.938.14c.968 0 1.64-.657 1.64-1.344 0-.547-.437-1.094-1.203-1.25.719-.266.984-.781.984-1.219 0-.547-.625-.953-1.406-.953-.766 0-1.36.375-1.36.938 0 .234.157.359.36.359.219 0 .36-.156.36-.344 0-.203-.141-.36-.36-.375.25-.297.719-.375.985-.375.312 0 .75.156.75.75 0 .297-.094.625-.282.828-.219.266-.422.281-.765.313-.172.015-.188.015-.22.015-.015 0-.077.016-.077.094 0 .094.062.094.187.094zm0 0" style="stroke:none;stroke-width:0" transform="translate(83.383 21.201)scale(.40221)"/></g></g><g ns1:alignment="middle center" ns1:jacobian_sqrt="1.074" ns1:pdfconverter="pdf2svg" ns1:preamble="C:\\Users\\drsjd\\AppData\\Roaming\\inkscape\\extensions\\textext\\default_packages.tex" ns1:scale="3.044" ns1:texconverter="pdflatex" ns1:text="$h_{1}$" ns1:version="0.11.0"><g style="fill:#000;fill-opacity:1"><path d="M2.86-6.812s0-.11-.126-.11c-.234 0-.953.078-1.218.11-.079 0-.188.015-.188.187 0 .125.094.125.234.125.485 0 .5.063.5.172l-.03.203L.593-.391C.547-.25.547-.234.547-.17c0 .234.203.28.297.28a.41.41 0 0 0 .36-.265l.187-.75.218-.89c.063-.235.125-.454.172-.673.016-.062.11-.39.11-.453.03-.094.343-.64.687-.922.219-.156.516-.344.953-.344.422 0 .531.344.531.704 0 .53-.375 1.625-.609 2.234-.078.219-.14.344-.14.547 0 .469.359.812.828.812.937 0 1.297-1.453 1.297-1.53 0-.11-.079-.11-.11-.11-.11 0-.11.031-.156.187-.14.532-.469 1.235-1.016 1.235-.172 0-.234-.094-.234-.328 0-.25.078-.485.172-.704.156-.437.61-1.625.61-2.203 0-.64-.391-1.062-1.141-1.062-.626 0-1.11.312-1.485.765zm0 0" style="stroke:none;stroke-width:0" transform="translate(81.131 .797)scale(.40221)"/></g><g style="fill:#000;fill-opacity:1"><path d="M2.328-4.437c0-.188 0-.188-.203-.188-.453.438-1.078.438-1.36.438v.25c.157 0 .626 0 1-.188v3.547c0 .234 0 .328-.687.328H.812V0c.125 0 .985-.031 1.235-.031.219 0 1.094.031 1.25.031v-.25H3.03c-.703 0-.703-.094-.703-.328zm0 0" style="stroke:none;stroke-width:0" transform="translate(83.44 1.397)scale(.40221)"/></g></g><g ns1:alignment="middle center" ns1:jacobian_sqrt="1.074" ns1:pdfconverter="pdf2svg" ns1:preamble="C:\\Users\\drsjd\\AppData\\Roaming\\inkscape\\extensions\\textext\\default_packages.tex" ns1:scale="3.044" ns1:texconverter="pdflatex" ns1:text="$h_{2}$" ns1:version="0.11.0"><g style="fill:#000;fill-opacity:1"><path d="M2.86-6.812s0-.11-.126-.11c-.234 0-.953.078-1.218.11-.079 0-.188.015-.188.187 0 .125.094.125.234.125.485 0 .5.063.5.172l-.03.203L.593-.391C.547-.25.547-.234.547-.17c0 .234.203.28.297.28a.41.41 0 0 0 .36-.265l.187-.75.218-.89c.063-.235.125-.454.172-.673.016-.062.11-.39.11-.453.03-.094.343-.64.687-.922.219-.156.516-.344.953-.344.422 0 .531.344.531.704 0 .53-.375 1.625-.609 2.234-.078.219-.14.344-.14.547 0 .469.359.812.828.812.937 0 1.297-1.453 1.297-1.53 0-.11-.079-.11-.11-.11-.11 0-.11.031-.156.187-.14.532-.469 1.235-1.016 1.235-.172 0-.234-.094-.234-.328 0-.25.078-.485.172-.704.156-.437.61-1.625.61-2.203 0-.64-.391-1.062-1.141-1.062-.626 0-1.11.312-1.485.765zm0 0" style="stroke:none;stroke-width:0" transform="translate(81.087 10.713)scale(.40221)"/></g><g style="fill:#000;fill-opacity:1"><path d="M3.516-1.266H3.28c-.015.157-.094.563-.187.625-.047.047-.578.047-.688.047H1.125c.734-.64.984-.843 1.39-1.172.516-.406 1-.843 1-1.5 0-.843-.734-1.359-1.624-1.359-.86 0-1.453.61-1.453 1.25 0 .344.296.39.375.39.156 0 .359-.124.359-.374 0-.125-.047-.375-.406-.375.218-.485.687-.641 1.015-.641.703 0 1.063.547 1.063 1.11 0 .609-.438 1.078-.656 1.328L.516-.266C.437-.203.437-.187.437 0h2.876zm0 0" style="stroke:none;stroke-width:0" transform="translate(83.396 11.314)scale(.40221)"/></g></g><circle cx="52.51" cy="9.621" r="3.918" style="fill:none;fill-opacity:1;stroke:#000;stroke-width:.23907581;stroke-miterlimit:4;stroke-dasharray:none;stroke-dashoffset:0;stroke-opacity:1"/><circle cx="83.058" cy="-.295" r="3.918" style="fill:none;fill-opacity:1;stroke:#000;stroke-width:.23907581;stroke-miterlimit:4;stroke-dasharray:none;stroke-dashoffset:0;stroke-opacity:1"/><circle cx="83.058" cy="9.621" r="3.918" style="fill:none;fill-opacity:1;stroke:#000;stroke-width:.23907581;stroke-miterlimit:4;stroke-dasharray:none;stroke-dashoffset:0;stroke-opacity:1"/><path d="M56.349 8.721 78.727.151" style="fill:none;stroke:#000;stroke-width:.23907581;stroke-linecap:butt;stroke-linejoin:miter;stroke-miterlimit:4;stroke-dasharray:none;stroke-opacity:1;marker-end:url(#g)"/><path d="m56.364 10.308 22.46 8.572" style="fill:none;stroke:#000;stroke-width:.23769103;stroke-linecap:butt;stroke-linejoin:miter;stroke-miterlimit:4;stroke-dasharray:none;stroke-opacity:1;marker-end:url(#h)"/><path d="m56.563 9.446 22.084-.027" style="fill:none;stroke:#000;stroke-width:.23907581;stroke-linecap:butt;stroke-linejoin:miter;stroke-miterlimit:4;stroke-dasharray:none;stroke-opacity:1;marker-end:url(#i)"/><path d="M109.156 8.543 86.9.722" style="fill:none;stroke:#000;stroke-width:.23907581;stroke-linecap:butt;stroke-linejoin:miter;stroke-miterlimit:4;stroke-dasharray:none;stroke-opacity:1;marker-start:url(#j)"/><path d="m109.096 10.543-22.233 7.751" style="fill:none;stroke:#000;stroke-width:.23907581;stroke-linecap:butt;stroke-linejoin:miter;stroke-miterlimit:4;stroke-dasharray:none;stroke-opacity:1;marker-start:url(#k)"/><path d="m109 19.54-22.037-.028" style="fill:none;stroke:#000;stroke-width:.24034719;stroke-linecap:butt;stroke-linejoin:miter;stroke-miterlimit:4;stroke-dasharray:none;stroke-opacity:1;marker-start:url(#l)"/><g ns1:alignment="middle center" ns1:jacobian_sqrt="1.074" ns1:pdfconverter="pdf2svg" ns1:preamble="C:\\Users\\drsjd\\AppData\\Roaming\\inkscape\\extensions\\textext\\default_packages.tex" ns1:scale="3.044" ns1:texconverter="pdflatex" ns1:text="$x$" ns1:version="0.11.0" style="fill:#000;fill-opacity:1"><path d="M3.328-3.016c.063-.25.297-1.171.985-1.171.046 0 .296 0 .5.125a.58.58 0 0 0-.47.546c0 .157.11.344.376.344a.546.546 0 0 0 .531-.578c0-.516-.578-.656-.922-.656-.578 0-.922.531-1.047.75-.25-.656-.781-.75-1.078-.75-1.031 0-1.61 1.281-1.61 1.531 0 .11.11.11.126.11.078 0 .11-.032.125-.11.344-1.062 1-1.312 1.344-1.312.187 0 .53.093.53.671 0 .313-.171.97-.53 2.375-.157.61-.516 1.032-.954 1.032-.062 0-.28 0-.5-.125.25-.063.47-.266.47-.547 0-.266-.22-.344-.36-.344-.313 0-.547.25-.547.578 0 .453.484.656.922.656.672 0 1.031-.703 1.047-.75.125.36.484.75 1.078.75 1.031 0 1.594-1.28 1.594-1.53 0-.11-.079-.11-.11-.11-.094 0-.11.047-.14.11-.329 1.077-1 1.312-1.313 1.312-.39 0-.547-.313-.547-.657 0-.218.047-.437.156-.875zm0 0" style="stroke:none;stroke-width:0" transform="translate(51.395 10.485)scale(.40221)"/></g><circle cx="83.058" cy="19.537" r="3.918" style="fill:none;fill-opacity:1;stroke:#000;stroke-width:.23907581;stroke-miterlimit:4;stroke-dasharray:none;stroke-dashoffset:0;stroke-opacity:1"/><g ns1:alignment="middle center" ns1:jacobian_sqrt=".402" ns1:pdfconverter="pdf2svg" ns1:preamble="C:\\Users\\drsjd\\AppData\\Roaming\\inkscape\\extensions\\textext\\default_packages.tex" ns1:scale="1.14" ns1:texconverter="pdflatex" ns1:text="$h\'_{1}$" ns1:version="0.11.0"><g style="fill:#000;fill-opacity:1"><path d="M2.86-6.812s0-.11-.126-.11c-.234 0-.953.078-1.218.11-.079 0-.188.015-.188.187 0 .125.094.125.234.125.485 0 .5.063.5.172l-.03.203L.593-.391C.547-.25.547-.234.547-.17c0 .234.203.28.297.28a.41.41 0 0 0 .36-.265l.187-.75.218-.89c.063-.235.125-.454.172-.673.016-.062.11-.39.11-.453.03-.094.343-.64.687-.922.219-.156.516-.344.953-.344.422 0 .531.344.531.704 0 .53-.375 1.625-.609 2.234-.078.219-.14.344-.14.547 0 .469.359.812.828.812.937 0 1.297-1.453 1.297-1.53 0-.11-.079-.11-.11-.11-.11 0-.11.031-.156.187-.14.532-.469 1.235-1.016 1.235-.172 0-.234-.094-.234-.328 0-.25.078-.485.172-.704.156-.437.61-1.625.61-2.203 0-.64-.391-1.062-1.141-1.062-.626 0-1.11.312-1.485.765zm0 0" style="stroke:none;stroke-width:0" transform="translate(111.558 .717)scale(.40221)"/></g><g style="fill:#000;fill-opacity:1"><path d="M2.016-3.297c.062-.11.062-.172.062-.219 0-.218-.187-.375-.406-.375-.266 0-.344.22-.375.329L.375-.547a.3.3 0 0 0-.047.11c0 .078.219.156.281.156.047 0 .047-.016.094-.125zm0 0" style="stroke:none;stroke-width:0" transform="translate(113.867 -.737)scale(.40221)"/></g><g style="fill:#000;fill-opacity:1"><path d="M2.328-4.437c0-.188 0-.188-.203-.188-.453.438-1.078.438-1.36.438v.25c.157 0 .626 0 1-.188v3.547c0 .234 0 .328-.687.328H.812V0c.125 0 .985-.031 1.235-.031.219 0 1.094.031 1.25.031v-.25H3.03c-.703 0-.703-.094-.703-.328zm0 0" style="stroke:none;stroke-width:0" transform="translate(113.867 1.712)scale(.40221)"/></g></g><g ns1:alignment="middle center" ns1:jacobian_sqrt=".402" ns1:pdfconverter="pdf2svg" ns1:preamble="C:\\Users\\drsjd\\AppData\\Roaming\\inkscape\\extensions\\textext\\default_packages.tex" ns1:scale="1.14" ns1:texconverter="pdflatex" ns1:text="$h\'_{2}$" ns1:version="0.11.0"><g style="fill:#000;fill-opacity:1"><path d="M2.86-6.812s0-.11-.126-.11c-.234 0-.953.078-1.218.11-.079 0-.188.015-.188.187 0 .125.094.125.234.125.485 0 .5.063.5.172l-.03.203L.593-.391C.547-.25.547-.234.547-.17c0 .234.203.28.297.28a.41.41 0 0 0 .36-.265l.187-.75.218-.89c.063-.235.125-.454.172-.673.016-.062.11-.39.11-.453.03-.094.343-.64.687-.922.219-.156.516-.344.953-.344.422 0 .531.344.531.704 0 .53-.375 1.625-.609 2.234-.078.219-.14.344-.14.547 0 .469.359.812.828.812.937 0 1.297-1.453 1.297-1.53 0-.11-.079-.11-.11-.11-.11 0-.11.031-.156.187-.14.532-.469 1.235-1.016 1.235-.172 0-.234-.094-.234-.328 0-.25.078-.485.172-.704.156-.437.61-1.625.61-2.203 0-.64-.391-1.062-1.141-1.062-.626 0-1.11.312-1.485.765zm0 0" style="stroke:none;stroke-width:0" transform="translate(111.514 10.634)scale(.40221)"/></g><g style="fill:#000;fill-opacity:1"><path d="M2.016-3.297c.062-.11.062-.172.062-.219 0-.218-.187-.375-.406-.375-.266 0-.344.22-.375.329L.375-.547a.3.3 0 0 0-.047.11c0 .078.219.156.281.156.047 0 .047-.016.094-.125zm0 0" style="stroke:none;stroke-width:0" transform="translate(113.823 9.18)scale(.40221)"/></g><g style="fill:#000;fill-opacity:1"><path d="M3.516-1.266H3.28c-.015.157-.094.563-.187.625-.047.047-.578.047-.688.047H1.125c.734-.64.984-.843 1.39-1.172.516-.406 1-.843 1-1.5 0-.843-.734-1.359-1.624-1.359-.86 0-1.453.61-1.453 1.25 0 .344.296.39.375.39.156 0 .359-.124.359-.374 0-.125-.047-.375-.406-.375.218-.485.687-.641 1.015-.641.703 0 1.063.547 1.063 1.11 0 .609-.438 1.078-.656 1.328L.516-.266C.437-.203.437-.187.437 0h2.876zm0 0" style="stroke:none;stroke-width:0" transform="translate(113.823 11.628)scale(.40221)"/></g></g><g ns1:alignment="middle center" ns1:jacobian_sqrt=".402" ns1:pdfconverter="pdf2svg" ns1:preamble="C:\\Users\\drsjd\\AppData\\Roaming\\inkscape\\extensions\\textext\\default_packages.tex" ns1:scale="1.14" ns1:texconverter="pdflatex" ns1:text="$h\'_{3}$" ns1:version="0.11.0"><g style="fill:#000;fill-opacity:1"><path d="M2.86-6.812s0-.11-.126-.11c-.234 0-.953.078-1.218.11-.079 0-.188.015-.188.187 0 .125.094.125.234.125.485 0 .5.063.5.172l-.03.203L.593-.391C.547-.25.547-.234.547-.17c0 .234.203.28.297.28a.41.41 0 0 0 .36-.265l.187-.75.218-.89c.063-.235.125-.454.172-.673.016-.062.11-.39.11-.453.03-.094.343-.64.687-.922.219-.156.516-.344.953-.344.422 0 .531.344.531.704 0 .53-.375 1.625-.609 2.234-.078.219-.14.344-.14.547 0 .469.359.812.828.812.937 0 1.297-1.453 1.297-1.53 0-.11-.079-.11-.11-.11-.11 0-.11.031-.156.187-.14.532-.469 1.235-1.016 1.235-.172 0-.234-.094-.234-.328 0-.25.078-.485.172-.704.156-.437.61-1.625.61-2.203 0-.64-.391-1.062-1.141-1.062-.626 0-1.11.312-1.485.765zm0 0" style="stroke:none;stroke-width:0" transform="translate(111.502 20.521)scale(.40221)"/></g><g style="fill:#000;fill-opacity:1"><path d="M2.016-3.297c.062-.11.062-.172.062-.219 0-.218-.187-.375-.406-.375-.266 0-.344.22-.375.329L.375-.547a.3.3 0 0 0-.047.11c0 .078.219.156.281.156.047 0 .047-.016.094-.125zm0 0" style="stroke:none;stroke-width:0" transform="translate(113.81 19.067)scale(.40221)"/></g><g style="fill:#000;fill-opacity:1"><path d="M1.906-2.328c.547 0 .938.375.938 1.125 0 .86-.516 1.125-.906 1.125-.282 0-.907-.078-1.188-.5.328 0 .406-.235.406-.39 0-.22-.172-.376-.39-.376a.38.38 0 0 0-.391.407C.375-.281 1.094.14 1.938.14c.968 0 1.64-.657 1.64-1.344 0-.547-.437-1.094-1.203-1.25.719-.266.984-.781.984-1.219 0-.547-.625-.953-1.406-.953-.766 0-1.36.375-1.36.938 0 .234.157.359.36.359.219 0 .36-.156.36-.344 0-.203-.141-.36-.36-.375.25-.297.719-.375.985-.375.312 0 .75.156.75.75 0 .297-.094.625-.282.828-.219.266-.422.281-.765.313-.172.015-.188.015-.22.015-.015 0-.077.016-.077.094 0 .094.062.094.187.094zm0 0" style="stroke:none;stroke-width:0" transform="translate(113.81 21.516)scale(.40221)"/></g></g><path d="m108.982-.293-22.02-.028" style="fill:none;stroke:#000;stroke-width:.24034719;stroke-linecap:butt;stroke-linejoin:miter;stroke-miterlimit:4;stroke-dasharray:none;stroke-opacity:1;marker-start:url(#m)"/><path d="M109.44 17.627 86.487 1.726" style="fill:none;stroke:#000;stroke-width:.23907581;stroke-linecap:butt;stroke-linejoin:miter;stroke-miterlimit:4;stroke-dasharray:none;stroke-opacity:1;marker-start:url(#n)"/><path d="M109.44 1.578 86.274 17.36" style="fill:none;stroke:#000;stroke-width:.23907581;stroke-linecap:butt;stroke-linejoin:miter;stroke-miterlimit:4;stroke-dasharray:none;stroke-opacity:1;marker-start:url(#o)"/><g ns1:alignment="middle center" ns1:jacobian_sqrt=".402" ns1:pdfconverter="pdf2svg" ns1:preamble="C:\\Users\\drsjd\\AppData\\Roaming\\inkscape\\extensions\\textext\\default_packages.tex" ns1:scale="1.14" ns1:texconverter="pdflatex" ns1:text="$y\'$" ns1:version="0.11.0"><g style="fill:#000;fill-opacity:1"><path d="M4.844-3.797c.047-.14.047-.156.047-.234 0-.172-.141-.266-.297-.266a.46.46 0 0 0-.344.203c-.016.063-.11.36-.14.547-.079.25-.141.531-.204.797L3.453-.953c-.031.14-.469.844-1.125.844-.5 0-.61-.438-.61-.813 0-.453.173-1.078.5-1.953.157-.406.204-.516.204-.719 0-.437-.313-.812-.813-.812-.953 0-1.312 1.453-1.312 1.531 0 .11.094.11.11.11.109 0 .109-.032.156-.188.28-.938.671-1.235 1.015-1.235.078 0 .25 0 .25.313 0 .25-.11.516-.172.703-.406 1.063-.578 1.625-.578 2.094 0 .89.625 1.187 1.219 1.187.39 0 .719-.171 1-.453-.125.516-.25 1.016-.64 1.547-.266.328-.641.625-1.094.625-.141 0-.594-.031-.766-.422.156 0 .297 0 .422-.125a.5.5 0 0 0 .203-.406c0-.312-.266-.344-.36-.344C.829.531.5.687.5 1.171c0 .5.438.876 1.063.876 1.015 0 2.046-.906 2.328-2.031Zm0 0" style="stroke:none;stroke-width:0" transform="translate(142.502 10.72)scale(.40221)"/></g><g style="fill:#000;fill-opacity:1"><path d="M2.016-3.297c.062-.11.062-.172.062-.219 0-.218-.187-.375-.406-.375-.266 0-.344.22-.375.329L.375-.547a.3.3 0 0 0-.047.11c0 .078.219.156.281.156.047 0 .047-.016.094-.125Zm0 0" style="stroke:none;stroke-width:0" transform="translate(144.61 9.265)scale(.40221)"/></g></g></g></svg>