<svg xmlns="http://www.w3.org/2000/svg" xmlns:ns1="http://www.iki.fi/pav/software/textext/" width="570.668" height="167.021" viewBox="0 0 150.989 44.191"><rect width="100%" height="100%" fill="rgb(245,245,245)"/><defs><marker id="b" orient="auto" refX="0" refY="0" style="overflow:visible"><path d="m0 0 5-5-17.5 5L5 5Z" style="fill:context-stroke;fill-rule:evenodd;stroke:context-stroke;stroke-width:1pt" transform="translate(4)scale(.4)"/></marker><marker id="a" orient="auto" refX="0" refY="0" style="overflow:visible"><path d="m0 0 5-5-17.5 5L5 5Z" style="fill:context-stroke;fill-rule:evenodd;stroke:context-stroke;stroke-width:1pt" transform="translate(-4)scale(-.4)"/></marker><marker id="c" orient="auto" refX="0" refY="0" style="overflow:visible"><path d="m0 0 5-5-17.5 5L5 5Z" style="fill:context-stroke;fill-rule:evenodd;stroke:context-stroke;stroke-width:1pt" transform="translate(-4)scale(-.4)"/></marker><marker id="f" orient="auto" refX="0" refY="0" style="overflow:visible"><path d="m0 0 5-5-17.5 5L5 5Z" style="fill:#476779;fill-opacity:1;fill-rule:evenodd;stroke:#476779;stroke-width:1pt;stroke-opacity:1" transform="translate(-4)scale(-.4)"/></marker><marker id="d" orient="auto" refX="0" refY="0" style="overflow:visible"><path d="m0 0 5-5-17.5 5L5 5Z" style="fill:#000;fill-opacity:1;fill-rule:evenodd;stroke:#000;stroke-width:1pt;stroke-opacity:1" transform="translate(4)scale(.4)"/></marker><marker id="e" orient="auto" refX="0" refY="0" style="overflow:visible"><path d="m0 0 5-5-17.5 5L5 5Z" style="fill:#773c23;fill-opacity:1;fill-rule:evenodd;stroke:#773c23;stroke-width:1pt;stroke-opacity:1" transform="translate(-4)scale(-.4)"/></marker></defs><g transform="translate(-304.907 -69.82)"><path d="m351.652 90.738 20.555-11.23" style="fill:none;stroke:#000;stroke-width:.3;stroke-linecap:butt;stroke-linejoin:miter;stroke-miterlimit:4;stroke-dasharray:none;stroke-opacity:1;marker-end:url(#a)"/><path d="m351.502 93.897 20.811 11.024" style="fill:none;stroke:#000;stroke-width:.3;stroke-linecap:butt;stroke-linejoin:miter;stroke-miterlimit:4;stroke-dasharray:none;stroke-opacity:1;marker-end:url(#a)"/><path d="m351.931 92.916 19.875 3.71" style="fill:none;stroke:#000;stroke-width:.3;stroke-linecap:butt;stroke-linejoin:miter;stroke-miterlimit:4;stroke-dasharray:none;stroke-opacity:1;marker-end:url(#a)"/><path d="m400.655 95.45-20.98-15.502" style="fill:none;stroke:#000;stroke-width:.3;stroke-linecap:butt;stroke-linejoin:miter;stroke-miterlimit:4;stroke-dasharray:none;stroke-opacity:1;marker-start:url(#b)"/><path d="m400.403 98.88-20.468 6.685" style="fill:none;stroke:#000;stroke-width:.3;stroke-linecap:butt;stroke-linejoin:miter;stroke-miterlimit:4;stroke-dasharray:none;stroke-opacity:1;marker-start:url(#b)"/><path d="m400.332 96.498-20.147-7.874" style="fill:none;stroke:#000;stroke-width:.3;stroke-linecap:butt;stroke-linejoin:miter;stroke-miterlimit:4;stroke-dasharray:none;stroke-opacity:1;marker-start:url(#b)"/><circle cx="404.82" cy="97.398" r="3.918" style="fill:none;fill-opacity:1;stroke:#000;stroke-width:.3;stroke-miterlimit:4;stroke-dasharray:none;stroke-dashoffset:0;stroke-opacity:1"/><circle cx="404.734" cy="87.386" r="3.918" style="fill:none;fill-opacity:1;stroke:#000;stroke-width:.3;stroke-miterlimit:4;stroke-dasharray:none;stroke-dashoffset:0;stroke-opacity:1"/><g style="fill:#000;fill-opacity:1"><path d="M4.844-3.797c.047-.14.047-.156.047-.234 0-.172-.141-.266-.297-.266a.46.46 0 0 0-.344.203c-.016.063-.11.36-.14.547-.079.25-.141.531-.204.797L3.453-.953c-.031.14-.469.844-1.125.844-.5 0-.61-.438-.61-.813 0-.453.173-1.078.5-1.953.157-.406.204-.516.204-.719 0-.437-.313-.812-.813-.812-.953 0-1.312 1.453-1.312 1.531 0 .11.094.11.11.11.109 0 .109-.032.156-.188.28-.938.671-1.235 1.015-1.235.078 0 .25 0 .25.313 0 .25-.11.516-.172.703-.406 1.063-.578 1.625-.578 2.094 0 .89.625 1.187 1.219 1.187.39 0 .719-.171 1-.453-.125.516-.25 1.016-.64 1.547-.266.328-.641.625-1.094.625-.141 0-.594-.031-.766-.422.156 0 .297 0 .422-.125a.5.5 0 0 0 .203-.406c0-.312-.266-.344-.36-.344C.829.531.5.687.5 1.171c0 .5.438.876 1.063.876 1.015 0 2.046-.906 2.328-2.031zm0 0" style="stroke:none;stroke-width:0" transform="translate(403.03 87.86)scale(.40221)"/></g><g style="fill:#000;fill-opacity:1"><path d="M2.328-4.437c0-.188 0-.188-.203-.188-.453.438-1.078.438-1.36.438v.25c.157 0 .626 0 1-.188v3.547c0 .234 0 .328-.687.328H.812V0c.125 0 .985-.031 1.235-.031.219 0 1.094.031 1.25.031v-.25H3.03c-.703 0-.703-.094-.703-.328zm0 0" style="stroke:none;stroke-width:0" transform="translate(404.994 88.46)scale(.40221)"/></g><path d="m400.272 86.078-20.006-7.288" style="fill:none;stroke:#000;stroke-width:.3;stroke-linecap:butt;stroke-linejoin:miter;stroke-miterlimit:4;stroke-dasharray:none;stroke-opacity:1;marker-start:url(#b)"/><path d="m400.743 89.75-21.191 14.776" style="fill:none;stroke:#000;stroke-width:.3;stroke-linecap:butt;stroke-linejoin:miter;stroke-miterlimit:4;stroke-dasharray:none;stroke-opacity:1;marker-start:url(#b)"/><path d="m400.093 87.518-19.757-.075" style="fill:none;stroke:#000;stroke-width:.3;stroke-linecap:butt;stroke-linejoin:miter;stroke-miterlimit:4;stroke-dasharray:none;stroke-opacity:1;marker-start:url(#b)"/><g style="fill:#000;fill-opacity:1"><path d="M4.844-3.797c.047-.14.047-.156.047-.234 0-.172-.141-.266-.297-.266a.46.46 0 0 0-.344.203c-.016.063-.11.36-.14.547-.079.25-.141.531-.204.797L3.453-.953c-.031.14-.469.844-1.125.844-.5 0-.61-.438-.61-.813 0-.453.173-1.078.5-1.953.157-.406.204-.516.204-.719 0-.437-.313-.812-.813-.812-.953 0-1.312 1.453-1.312 1.531 0 .11.094.11.11.11.109 0 .109-.032.156-.188.28-.938.671-1.235 1.015-1.235.078 0 .25 0 .25.313 0 .25-.11.516-.172.703-.406 1.063-.578 1.625-.578 2.094 0 .89.625 1.187 1.219 1.187.39 0 .719-.171 1-.453-.125.516-.25 1.016-.64 1.547-.266.328-.641.625-1.094.625-.141 0-.594-.031-.766-.422.156 0 .297 0 .422-.125a.5.5 0 0 0 .203-.406c0-.312-.266-.344-.36-.344C.829.531.5.687.5 1.171c0 .5.438.876 1.063.876 1.015 0 2.046-.906 2.328-2.031zm0 0" style="stroke:none;stroke-width:0" transform="translate(403.071 97.873)scale(.40221)"/></g><g style="fill:#000;fill-opacity:1"><path d="M3.516-1.266H3.28c-.015.157-.094.563-.187.625-.047.047-.578.047-.688.047H1.125c.734-.64.984-.843 1.39-1.172.516-.406 1-.843 1-1.5 0-.843-.734-1.359-1.624-1.359-.86 0-1.453.61-1.453 1.25 0 .344.296.39.375.39.156 0 .359-.124.359-.374 0-.125-.047-.375-.406-.375.218-.485.687-.641 1.015-.641.703 0 1.063.547 1.063 1.11 0 .609-.438 1.078-.656 1.328L.516-.266C.437-.203.437-.187.437 0h2.876zm0 0" style="stroke:none;stroke-width:0" transform="translate(405.036 98.473)scale(.40221)"/></g><g ns1:alignment="middle center" ns1:jacobian_sqrt=".402" ns1:pdfconverter="pdf2svg" ns1:preamble="C:\\Users\\drsjd\\AppData\\Roaming\\inkscape\\extensions\\textext\\default_packages.tex" ns1:scale="1.14" ns1:texconverter="pdflatex" ns1:text="$x_1$" ns1:version="0.11.0"><g style="fill:#000;fill-opacity:1"><path d="M3.328-3.016c.063-.25.297-1.171.985-1.171.046 0 .296 0 .5.125a.58.58 0 0 0-.47.546c0 .157.11.344.376.344a.546.546 0 0 0 .531-.578c0-.516-.578-.656-.922-.656-.578 0-.922.531-1.047.75-.25-.656-.781-.75-1.078-.75-1.031 0-1.61 1.281-1.61 1.531 0 .11.11.11.126.11.078 0 .11-.032.125-.11.344-1.062 1-1.312 1.344-1.312.187 0 .53.093.53.671 0 .313-.171.97-.53 2.375-.157.61-.516 1.032-.954 1.032-.062 0-.28 0-.5-.125.25-.063.47-.266.47-.547 0-.266-.22-.344-.36-.344-.313 0-.547.25-.547.578 0 .453.484.656.922.656.672 0 1.031-.703 1.047-.75.125.36.484.75 1.078.75 1.031 0 1.594-1.28 1.594-1.53 0-.11-.079-.11-.11-.11-.094 0-.11.047-.14.11-.329 1.077-1 1.312-1.313 1.312-.39 0-.547-.313-.547-.657 0-.218.047-.437.156-.875zm0 0" style="stroke:none;stroke-width:0" transform="translate(346.09 83.061)scale(.40221)"/></g><g style="fill:#000;fill-opacity:1"><path d="M2.328-4.437c0-.188 0-.188-.203-.188-.453.438-1.078.438-1.36.438v.25c.157 0 .626 0 1-.188v3.547c0 .234 0 .328-.687.328H.812V0c.125 0 .985-.031 1.235-.031.219 0 1.094.031 1.25.031v-.25H3.03c-.703 0-.703-.094-.703-.328zm0 0" style="stroke:none;stroke-width:0" transform="translate(348.38 83.662)scale(.40221)"/></g></g><g style="fill:#000;fill-opacity:1"><path d="M3.328-3.016c.063-.25.297-1.171.985-1.171.046 0 .296 0 .5.125a.58.58 0 0 0-.47.546c0 .157.11.344.376.344a.546.546 0 0 0 .531-.578c0-.516-.578-.656-.922-.656-.578 0-.922.531-1.047.75-.25-.656-.781-.75-1.078-.75-1.031 0-1.61 1.281-1.61 1.531 0 .11.11.11.126.11.078 0 .11-.032.125-.11.344-1.062 1-1.312 1.344-1.312.187 0 .53.093.53.671 0 .313-.171.97-.53 2.375-.157.61-.516 1.032-.954 1.032-.062 0-.28 0-.5-.125.25-.063.47-.266.47-.547 0-.266-.22-.344-.36-.344-.313 0-.547.25-.547.578 0 .453.484.656.922.656.672 0 1.031-.703 1.047-.75.125.36.484.75 1.078.75 1.031 0 1.594-1.28 1.594-1.53 0-.11-.079-.11-.11-.11-.094 0-.11.047-.14.11-.329 1.077-1 1.312-1.313 1.312-.39 0-.547-.313-.547-.657 0-.218.047-.437.156-.875zm0 0" style="stroke:none;stroke-width:0" transform="translate(346.045 92.977)scale(.40221)"/></g><g style="fill:#000;fill-opacity:1"><path d="M3.516-1.266H3.28c-.015.157-.094.563-.187.625-.047.047-.578.047-.688.047H1.125c.734-.64.984-.843 1.39-1.172.516-.406 1-.843 1-1.5 0-.843-.734-1.359-1.624-1.359-.86 0-1.453.61-1.453 1.25 0 .344.296.39.375.39.156 0 .359-.124.359-.374 0-.125-.047-.375-.406-.375.218-.485.687-.641 1.015-.641.703 0 1.063.547 1.063 1.11 0 .609-.438 1.078-.656 1.328L.516-.266C.437-.203.437-.187.437 0h2.876zm0 0" style="stroke:none;stroke-width:0" transform="translate(348.336 93.578)scale(.40221)"/></g><g style="fill:#000;fill-opacity:1"><path d="M3.328-3.016c.063-.25.297-1.171.985-1.171.046 0 .296 0 .5.125a.58.58 0 0 0-.47.546c0 .157.11.344.376.344a.546.546 0 0 0 .531-.578c0-.516-.578-.656-.922-.656-.578 0-.922.531-1.047.75-.25-.656-.781-.75-1.078-.75-1.031 0-1.61 1.281-1.61 1.531 0 .11.11.11.126.11.078 0 .11-.032.125-.11.344-1.062 1-1.312 1.344-1.312.187 0 .53.093.53.671 0 .313-.171.97-.53 2.375-.157.61-.516 1.032-.954 1.032-.062 0-.28 0-.5-.125.25-.063.47-.266.47-.547 0-.266-.22-.344-.36-.344-.313 0-.547.25-.547.578 0 .453.484.656.922.656.672 0 1.031-.703 1.047-.75.125.36.484.75 1.078.75 1.031 0 1.594-1.28 1.594-1.53 0-.11-.079-.11-.11-.11-.094 0-.11.047-.14.11-.329 1.077-1 1.312-1.313 1.312-.39 0-.547-.313-.547-.657 0-.218.047-.437.156-.875zm0 0" style="stroke:none;stroke-width:0" transform="translate(346.033 102.865)scale(.40221)"/></g><g style="fill:#000;fill-opacity:1"><path d="M1.906-2.328c.547 0 .938.375.938 1.125 0 .86-.516 1.125-.906 1.125-.282 0-.907-.078-1.188-.5.328 0 .406-.235.406-.39 0-.22-.172-.376-.39-.376a.38.38 0 0 0-.391.407C.375-.281 1.094.14 1.938.14c.968 0 1.64-.657 1.64-1.344 0-.547-.437-1.094-1.203-1.25.719-.266.984-.781.984-1.219 0-.547-.625-.953-1.406-.953-.766 0-1.36.375-1.36.938 0 .234.157.359.36.359.219 0 .36-.156.36-.344 0-.203-.141-.36-.36-.375.25-.297.719-.375.985-.375.312 0 .75.156.75.75 0 .297-.094.625-.282.828-.219.266-.422.281-.765.313-.172.015-.188.015-.22.015-.015 0-.077.016-.077.094 0 .094.062.094.187.094zm0 0" style="stroke:none;stroke-width:0" transform="translate(348.323 103.466)scale(.40221)"/></g><path d="m351.634 83.877 20.591 11.36" style="fill:none;stroke:#000;stroke-width:.3;stroke-linecap:butt;stroke-linejoin:miter;stroke-miterlimit:4;stroke-dasharray:none;stroke-opacity:1;marker-end:url(#a)"/><path d="m351.964 81.872 19.782-3.703" style="fill:none;stroke:#000;stroke-width:.3;stroke-linecap:butt;stroke-linejoin:miter;stroke-miterlimit:4;stroke-dasharray:none;stroke-opacity:1;marker-end:url(#a)"/><path d="m351.983 101.754 19.82-3.779" style="fill:none;stroke:#000;stroke-width:.3;stroke-linecap:butt;stroke-linejoin:miter;stroke-miterlimit:4;stroke-dasharray:none;stroke-opacity:1;marker-end:url(#a)"/><path d="m351.964 102.829 19.927 3.275" style="fill:#000;fill-opacity:1;stroke:#000;stroke-width:.3;stroke-linecap:butt;stroke-linejoin:miter;stroke-miterlimit:4;stroke-dasharray:none;stroke-opacity:1;marker-end:url(#c)"/><path d="m351.171 84.672 21.797 19.26" style="fill:none;stroke:#000;stroke-width:.3;stroke-linecap:butt;stroke-linejoin:miter;stroke-miterlimit:4;stroke-dasharray:none;stroke-opacity:1;marker-end:url(#a)"/><path d="m351.105 100.044 21.887-19.147" style="fill:none;stroke:#000;stroke-width:.3;stroke-linecap:butt;stroke-linejoin:miter;stroke-miterlimit:4;stroke-dasharray:none;stroke-opacity:1;marker-end:url(#a)"/><g style="fill:#773c23;fill-opacity:1;stroke-width:.745873;stroke-miterlimit:4;stroke-dasharray:none"><g style="fill:#773c23;fill-opacity:1;stroke-width:.745873;stroke-miterlimit:4;stroke-dasharray:none"><path d="M2.86-6.812s0-.11-.126-.11c-.234 0-.953.078-1.218.11-.079 0-.188.015-.188.187 0 .125.094.125.234.125.485 0 .5.063.5.172l-.03.203L.593-.391C.547-.25.547-.234.547-.17c0 .234.203.28.297.28a.41.41 0 0 0 .36-.265l.187-.75.218-.89c.063-.235.125-.454.172-.673.016-.062.11-.39.11-.453.03-.094.343-.64.687-.922.219-.156.516-.344.953-.344.422 0 .531.344.531.704 0 .53-.375 1.625-.609 2.234-.078.219-.14.344-.14.547 0 .469.359.812.828.812.937 0 1.297-1.453 1.297-1.53 0-.11-.079-.11-.11-.11-.11 0-.11.031-.156.187-.14.532-.469 1.235-1.016 1.235-.172 0-.234-.094-.234-.328 0-.25.078-.485.172-.704.156-.437.61-1.625.61-2.203 0-.64-.391-1.062-1.141-1.062-.626 0-1.11.312-1.485.765zm0 0" style="fill:#773c23;fill-opacity:1;stroke:none;stroke-width:.745873;stroke-miterlimit:4;stroke-dasharray:none" transform="translate(374.461 78.805)scale(.40221)"/></g><g style="fill:#773c23;fill-opacity:1;stroke-width:.745873;stroke-miterlimit:4;stroke-dasharray:none"><path d="M2.328-4.437c0-.188 0-.188-.203-.188-.453.438-1.078.438-1.36.438v.25c.157 0 .626 0 1-.188v3.547c0 .234 0 .328-.687.328H.812V0c.125 0 .985-.031 1.235-.031.219 0 1.094.031 1.25.031v-.25H3.03c-.703 0-.703-.094-.703-.328zm0 0" style="fill:#773c23;fill-opacity:1;stroke:none;stroke-width:.745873;stroke-miterlimit:4;stroke-dasharray:none" transform="translate(376.77 79.406)scale(.40221)"/></g></g><circle cx="376.389" cy="77.713" r="3.918" style="fill:none;fill-opacity:1;stroke:#773c23;stroke-width:.3;stroke-miterlimit:4;stroke-dasharray:none;stroke-dashoffset:0;stroke-opacity:1"/><g style="fill:#773c23;fill-opacity:1;stroke-width:.745873;stroke-miterlimit:4;stroke-dasharray:none"><g style="fill:#773c23;fill-opacity:1;stroke-width:.745873;stroke-miterlimit:4;stroke-dasharray:none"><path d="M2.86-6.812s0-.11-.126-.11c-.234 0-.953.078-1.218.11-.079 0-.188.015-.188.187 0 .125.094.125.234.125.485 0 .5.063.5.172l-.03.203L.593-.391C.547-.25.547-.234.547-.17c0 .234.203.28.297.28a.41.41 0 0 0 .36-.265l.187-.75.218-.89c.063-.235.125-.454.172-.673.016-.062.11-.39.11-.453.03-.094.343-.64.687-.922.219-.156.516-.344.953-.344.422 0 .531.344.531.704 0 .53-.375 1.625-.609 2.234-.078.219-.14.344-.14.547 0 .469.359.812.828.812.937 0 1.297-1.453 1.297-1.53 0-.11-.079-.11-.11-.11-.11 0-.11.031-.156.187-.14.532-.469 1.235-1.016 1.235-.172 0-.234-.094-.234-.328 0-.25.078-.485.172-.704.156-.437.61-1.625.61-2.203 0-.64-.391-1.062-1.141-1.062-.626 0-1.11.312-1.485.765zm0 0" style="fill:#773c23;fill-opacity:1;stroke:none;stroke-width:.745873;stroke-miterlimit:4;stroke-dasharray:none" transform="translate(374.405 98.348)scale(.40221)"/></g><g style="fill:#773c23;fill-opacity:1;stroke-width:.745873;stroke-miterlimit:4;stroke-dasharray:none"><path d="M1.906-2.328c.547 0 .938.375.938 1.125 0 .86-.516 1.125-.906 1.125-.282 0-.907-.078-1.188-.5.328 0 .406-.235.406-.39 0-.22-.172-.376-.39-.376a.38.38 0 0 0-.391.407C.375-.281 1.094.14 1.938.14c.968 0 1.64-.657 1.64-1.344 0-.547-.437-1.094-1.203-1.25.719-.266.984-.781.984-1.219 0-.547-.625-.953-1.406-.953-.766 0-1.36.375-1.36.938 0 .234.157.359.36.359.219 0 .36-.156.36-.344 0-.203-.141-.36-.36-.375.25-.297.719-.375.985-.375.312 0 .75.156.75.75 0 .297-.094.625-.282.828-.219.266-.422.281-.765.313-.172.015-.188.015-.22.015-.015 0-.077.016-.077.094 0 .094.062.094.187.094zm0 0" style="fill:#773c23;fill-opacity:1;stroke:none;stroke-width:.745873;stroke-miterlimit:4;stroke-dasharray:none" transform="translate(376.713 98.949)scale(.40221)"/></g></g><g style="fill:#773c23;fill-opacity:1;stroke-width:.745873;stroke-miterlimit:4;stroke-dasharray:none"><g style="fill:#773c23;fill-opacity:1;stroke-width:.745873;stroke-miterlimit:4;stroke-dasharray:none"><path d="M2.86-6.812s0-.11-.126-.11c-.234 0-.953.078-1.218.11-.079 0-.188.015-.188.187 0 .125.094.125.234.125.485 0 .5.063.5.172l-.03.203L.593-.391C.547-.25.547-.234.547-.17c0 .234.203.28.297.28a.41.41 0 0 0 .36-.265l.187-.75.218-.89c.063-.235.125-.454.172-.673.016-.062.11-.39.11-.453.03-.094.343-.64.687-.922.219-.156.516-.344.953-.344.422 0 .531.344.531.704 0 .53-.375 1.625-.609 2.234-.078.219-.14.344-.14.547 0 .469.359.812.828.812.937 0 1.297-1.453 1.297-1.53 0-.11-.079-.11-.11-.11-.11 0-.11.031-.156.187-.14.532-.469 1.235-1.016 1.235-.172 0-.234-.094-.234-.328 0-.25.078-.485.172-.704.156-.437.61-1.625.61-2.203 0-.64-.391-1.062-1.141-1.062-.626 0-1.11.312-1.485.765zm0 0" style="fill:#773c23;fill-opacity:1;stroke:none;stroke-width:.745873;stroke-miterlimit:4;stroke-dasharray:none" transform="translate(374.417 88.59)scale(.40221)"/></g><g style="fill:#773c23;fill-opacity:1;stroke-width:.745873;stroke-miterlimit:4;stroke-dasharray:none"><path d="M3.516-1.266H3.28c-.015.157-.094.563-.187.625-.047.047-.578.047-.688.047H1.125c.734-.64.984-.843 1.39-1.172.516-.406 1-.843 1-1.5 0-.843-.734-1.359-1.624-1.359-.86 0-1.453.61-1.453 1.25 0 .344.296.39.375.39.156 0 .359-.124.359-.374 0-.125-.047-.375-.406-.375.218-.485.687-.641 1.015-.641.703 0 1.063.547 1.063 1.11 0 .609-.438 1.078-.656 1.328L.516-.266C.437-.203.437-.187.437 0h2.876zm0 0" style="fill:#773c23;fill-opacity:1;stroke:none;stroke-width:.745873;stroke-miterlimit:4;stroke-dasharray:none" transform="translate(376.726 89.191)scale(.40221)"/></g></g><circle cx="376.389" cy="87.499" r="3.918" style="fill:none;fill-opacity:1;stroke:#000;stroke-width:.3;stroke-miterlimit:4;stroke-dasharray:none;stroke-dashoffset:0;stroke-opacity:1"/><circle cx="376.389" cy="107.07" r="3.918" style="fill:none;fill-opacity:1;stroke:#773c23;stroke-width:.3;stroke-miterlimit:4;stroke-dasharray:none;stroke-dashoffset:0;stroke-opacity:1"/><path d="m400.285 88.676-20.1 7.487" style="fill:none;stroke:#000;stroke-width:.3;stroke-linecap:butt;stroke-linejoin:miter;stroke-miterlimit:4;stroke-dasharray:none;stroke-opacity:1;marker-start:url(#b)"/><path d="m400.187 97.597-19.851-.253" style="fill:none;stroke:#000;stroke-width:.3;stroke-linecap:butt;stroke-linejoin:miter;stroke-miterlimit:4;stroke-dasharray:none;stroke-opacity:1;marker-start:url(#d)"/><g style="fill:#773c23;fill-opacity:1"><path d="M2.86-6.812s0-.11-.126-.11c-.234 0-.953.078-1.218.11-.079 0-.188.015-.188.187 0 .125.094.125.234.125.485 0 .5.063.5.172l-.03.203L.593-.391C.547-.25.547-.234.547-.17c0 .234.203.28.297.28a.41.41 0 0 0 .36-.265l.187-.75.218-.89c.063-.235.125-.454.172-.673.016-.062.11-.39.11-.453.03-.094.343-.64.687-.922.219-.156.516-.344.953-.344.422 0 .531.344.531.704 0 .53-.375 1.625-.609 2.234-.078.219-.14.344-.14.547 0 .469.359.812.828.812.937 0 1.297-1.453 1.297-1.53 0-.11-.079-.11-.11-.11-.11 0-.11.031-.156.187-.14.532-.469 1.235-1.016 1.235-.172 0-.234-.094-.234-.328 0-.25.078-.485.172-.704.156-.437.61-1.625.61-2.203 0-.64-.391-1.062-1.141-1.062-.626 0-1.11.312-1.485.765zm0 0" style="fill:#773c23;fill-opacity:1;stroke:none;stroke-width:0" transform="translate(374.383 108.162)scale(.40221)"/></g><g style="fill:#773c23;fill-opacity:1"><path d="M3.688-1.14v-.25h-.782V-4.5c0-.14 0-.203-.14-.203-.094 0-.125 0-.188.11L.266-1.392v.25h2.062v.563c0 .25 0 .328-.578.328h-.187V0c.359-.016.796-.031 1.046-.031.266 0 .704.015 1.063.031v-.25h-.188c-.578 0-.578-.078-.578-.328v-.563zM2.375-3.939v2.547H.531Zm0 0" style="fill:#773c23;fill-opacity:1;stroke:none;stroke-width:0" transform="translate(376.692 108.763)scale(.40221)"/></g><path d="m351.867 91.878 19.892-3.942" style="fill:none;stroke:#000;stroke-width:.3;stroke-linecap:butt;stroke-linejoin:miter;stroke-miterlimit:4;stroke-dasharray:none;stroke-opacity:1;marker-end:url(#a)"/><path d="m351.667 100.814 20.542-11.32" style="fill:none;stroke:#000;stroke-width:.3;stroke-linecap:butt;stroke-linejoin:miter;stroke-miterlimit:4;stroke-dasharray:none;stroke-opacity:1;marker-end:url(#a)"/><path d="m351.883 82.97 20.044 3.332" style="fill:none;stroke:#000;stroke-width:.3;stroke-linecap:butt;stroke-linejoin:miter;stroke-miterlimit:4;stroke-dasharray:none;stroke-opacity:1;marker-end:url(#a)"/><g style="fill:#000;fill-opacity:1"><g style="fill:#000;fill-opacity:1"><path d="M1.438 0v-6.89h-.75V0Zm0 0" style="fill:#000;fill-opacity:1;stroke:none;stroke-width:0" transform="translate(339.309 76.773)scale(.38977)"/><path d="M4.563 0v-2.719c0-1.062-.454-1.89-1.61-1.89-.578 0-1.172.218-1.531.718V-4.5H.688V0h.734v-2.547c.031-.86.562-1.406 1.36-1.406.78 0 1.062.469 1.062 1.265V0Zm0 0" style="fill:#000;fill-opacity:1;stroke:none;stroke-width:0" transform="translate(340.136 76.773)scale(.38977)"/><path d="M4.813-2.25c0-1.312-.875-2.25-2.204-2.25H.688v6.906h.75V0h1.109C4 0 4.813-.906 4.813-2.25m-.72 0c0 .89-.562 1.594-1.546 1.594h-1.11v-3.188h1.11c.969 0 1.547.64 1.547 1.594m0 0" style="fill:#000;fill-opacity:1;stroke:none;stroke-width:0" transform="translate(342.159 76.773)scale(.38977)"/><path d="M4.531 0v-4.5h-.765v2.547c0 .844-.422 1.422-1.328 1.422-.797 0-1.079-.5-1.079-1.266V-4.5H.641v2.719C.64-.72 1.14.125 2.266.125c.578 0 1.172-.328 1.5-.719V0Zm0 0" style="fill:#000;fill-opacity:1;stroke:none;stroke-width:0" transform="translate(344.213 76.773)scale(.38977)"/><path d="M3.203 0v-.64h-.781c-.703 0-.828-.172-.828-.829v-2.437h1.328V-4.5H1.594v-1.281H1.28L.86-4.5H.33v.594h.53v2.437C.86-.344 1.313 0 2.422 0Zm0 0" style="fill:#000;fill-opacity:1;stroke:none;stroke-width:0" transform="translate(346.248 76.773)scale(.38977)"/></g><g style="fill:#000;fill-opacity:1"><path d="M1.313-6.89H.578V0h.735Zm0 0" style="fill:#000;fill-opacity:1;stroke:none;stroke-width:0" transform="translate(348.752 76.773)scale(.38977)"/><path d="M4.14 0v-2.562c0-1.297-.546-2.047-1.89-2.047-.484 0-1.078.156-1.516.312v.734c.454-.25.829-.406 1.454-.406.718.016 1.265.375 1.265 1.125H2.422c-1.063 0-2 .36-2 1.531C.453-.405.984.125 1.89.125c.64 0 1.218-.266 1.562-.719V0Zm-.687-2.094c0 .875-.406 1.578-1.344 1.578-.546 0-1-.25-1-.843 0-.875.829-.875 1.61-.875h.734zm0 0" style="fill:#000;fill-opacity:1;stroke:none;stroke-width:0" transform="translate(349.529 76.773)scale(.38977)"/></g><g style="fill:#000;fill-opacity:1"><path d="M4.563-4.5h-.688l-1.39 3.297L.858-4.5H.156L2.11-.469l-.765 1.813c-.125.312-.547.547-.75.547l.25.515c.375-.031.765-.297 1.015-.687Zm0 0" style="fill:#000;fill-opacity:1;stroke:none;stroke-width:0" transform="translate(351.307 76.773)scale(.38977)"/></g><g style="fill:#000;fill-opacity:1"><path d="M4.547-2.25v-.078c0-1.297-.531-2.25-2.016-2.281C1.203-4.61.453-3.453.453-2.203c0 1.36.828 2.328 2.203 2.328.625 0 1.188-.14 1.735-.344v-.75c-.72.344-.828.422-1.672.422-.938 0-1.5-.562-1.5-1.625v-.078Zm-.734-.61H1.25c.094-.593.531-1.109 1.281-1.109.781 0 1.281.485 1.281 1.11m0 0" style="fill:#000;fill-opacity:1;stroke:none;stroke-width:0" transform="translate(353.078 76.773)scale(.38977)"/><path d="m3.188-3.594.234-.719c-.11-.125-.594-.25-.922-.25-.469.016-.86.25-1.062.672V-4.5h-.75V0h.75v-2.406c0-.656.343-1.516 1.046-1.516h.047c.235 0 .422.14.656.328m0 0" style="fill:#000;fill-opacity:1;stroke:none;stroke-width:0" transform="translate(355.004 76.773)scale(.38977)"/></g></g><g style="fill:#773c23;fill-opacity:1"><g style="fill:#773c23;fill-opacity:1"><path d="M5.5 0v-6.89h-.75v2.859H1.438v-2.86h-.75V0h.75v-3.312H4.75V0Zm0 0" style="fill:#773c23;fill-opacity:1;stroke:none;stroke-width:0" transform="translate(366.24 72.725)scale(.38977)"/><path d="M1.438 0v-4.5h-.75V0Zm-.375-6.89c-.235 0-.438.218-.438.452 0 .25.203.47.438.47.25 0 .437-.22.437-.47a.45.45 0 0 0-.437-.453m0 0" style="fill:#773c23;fill-opacity:1;stroke:none;stroke-width:0" transform="translate(368.65 72.725)scale(.38977)"/><path d="M.438-2.25C.438-.922 1.313 0 2.656 0h1.906v-6.89h-.75v2.39H2.72C1.25-4.5.438-3.594.438-2.25m.718 0c0-.875.563-1.594 1.563-1.594h1.094v3.188H2.718c-.985 0-1.563-.625-1.563-1.594m0 0" style="fill:#773c23;fill-opacity:1;stroke:none;stroke-width:0" transform="translate(369.478 72.725)scale(.38977)"/><path d="M.438-2.25C.438-.922 1.313 0 2.656 0h1.906v-6.89h-.75v2.39H2.72C1.25-4.5.438-3.594.438-2.25m.718 0c0-.875.563-1.594 1.563-1.594h1.094v3.188H2.718c-.985 0-1.563-.625-1.563-1.594m0 0" style="fill:#773c23;fill-opacity:1;stroke:none;stroke-width:0" transform="translate(371.524 72.725)scale(.38977)"/><path d="M4.547-2.25v-.078c0-1.297-.531-2.25-2.016-2.281C1.203-4.61.453-3.453.453-2.203c0 1.36.828 2.328 2.203 2.328.625 0 1.188-.14 1.735-.344v-.75c-.72.344-.828.422-1.672.422-.938 0-1.5-.562-1.5-1.625v-.078Zm-.734-.61H1.25c.094-.593.531-1.109 1.281-1.109.781 0 1.281.485 1.281 1.11m0 0" style="fill:#773c23;fill-opacity:1;stroke:none;stroke-width:0" transform="translate(373.57 72.725)scale(.38977)"/><path d="M4.563 0v-2.719c0-1.062-.454-1.89-1.61-1.89-.578 0-1.172.218-1.531.718V-4.5H.688V0h.734v-2.547c.031-.86.562-1.406 1.36-1.406.78 0 1.062.469 1.062 1.265V0Zm0 0" style="fill:#773c23;fill-opacity:1;stroke:none;stroke-width:0" transform="translate(375.497 72.725)scale(.38977)"/></g><g style="fill:#773c23;fill-opacity:1"><path d="M1.313-6.89H.578V0h.735Zm0 0" style="fill:#773c23;fill-opacity:1;stroke:none;stroke-width:0" transform="translate(378.685 72.725)scale(.38977)"/><path d="M4.14 0v-2.562c0-1.297-.546-2.047-1.89-2.047-.484 0-1.078.156-1.516.312v.734c.454-.25.829-.406 1.454-.406.718.016 1.265.375 1.265 1.125H2.422c-1.063 0-2 .36-2 1.531C.453-.405.984.125 1.89.125c.64 0 1.218-.266 1.562-.719V0Zm-.687-2.094c0 .875-.406 1.578-1.344 1.578-.546 0-1-.25-1-.843 0-.875.829-.875 1.61-.875h.734zm0 0" style="fill:#773c23;fill-opacity:1;stroke:none;stroke-width:0" transform="translate(379.461 72.725)scale(.38977)"/></g><g style="fill:#773c23;fill-opacity:1"><path d="M4.563-4.5h-.688l-1.39 3.297L.858-4.5H.156L2.11-.469l-.765 1.813c-.125.312-.547.547-.75.547l.25.515c.375-.031.765-.297 1.015-.687Zm0 0" style="fill:#773c23;fill-opacity:1;stroke:none;stroke-width:0" transform="translate(381.24 72.725)scale(.38977)"/></g><g style="fill:#773c23;fill-opacity:1"><path d="M4.547-2.25v-.078c0-1.297-.531-2.25-2.016-2.281C1.203-4.61.453-3.453.453-2.203c0 1.36.828 2.328 2.203 2.328.625 0 1.188-.14 1.735-.344v-.75c-.72.344-.828.422-1.672.422-.938 0-1.5-.562-1.5-1.625v-.078Zm-.734-.61H1.25c.094-.593.531-1.109 1.281-1.109.781 0 1.281.485 1.281 1.11m0 0" style="fill:#773c23;fill-opacity:1;stroke:none;stroke-width:0" transform="translate(383.01 72.725)scale(.38977)"/><path d="m3.188-3.594.234-.719c-.11-.125-.594-.25-.922-.25-.469.016-.86.25-1.062.672V-4.5h-.75V0h.75v-2.406c0-.656.343-1.516 1.046-1.516h.047c.235 0 .422.14.656.328m0 0" style="fill:#773c23;fill-opacity:1;stroke:none;stroke-width:0" transform="translate(384.936 72.725)scale(.38977)"/></g></g><g style="fill:#000;fill-opacity:1"><g style="fill:#000;fill-opacity:1"><path d="M6.25-3.422c0-1.89-.875-3.594-2.937-3.594-2.016 0-2.907 1.75-2.907 3.594S1.313.141 3.313.141C5.358.14 6.25-1.531 6.25-3.422m-.734 0c0 1.39-.61 2.89-2.203 2.89-1.563 0-2.172-1.515-2.172-2.89 0-1.422.578-2.922 2.172-2.922 1.624 0 2.203 1.485 2.203 2.922m0 0" style="fill:#000;fill-opacity:1;stroke:none;stroke-width:0" transform="translate(394.575 76.797)scale(.38977)"/><path d="M4.531 0v-4.5h-.765v2.547c0 .844-.422 1.422-1.328 1.422-.797 0-1.079-.5-1.079-1.266V-4.5H.641v2.719C.64-.72 1.14.125 2.266.125c.578 0 1.172-.328 1.5-.719V0Zm0 0" style="fill:#000;fill-opacity:1;stroke:none;stroke-width:0" transform="translate(397.18 76.797)scale(.38977)"/><path d="M3.203 0v-.64h-.781c-.703 0-.828-.172-.828-.829v-2.437h1.328V-4.5H1.594v-1.281H1.28L.86-4.5H.33v.594h.53v2.437C.86-.344 1.313 0 2.422 0Zm0 0" style="fill:#000;fill-opacity:1;stroke:none;stroke-width:0" transform="translate(399.216 76.797)scale(.38977)"/><path d="M4.813-2.25c0-1.312-.875-2.25-2.204-2.25H.688v6.906h.75V0h1.109C4 0 4.813-.906 4.813-2.25m-.72 0c0 .89-.562 1.594-1.546 1.594h-1.11v-3.188h1.11c.969 0 1.547.64 1.547 1.594m0 0" style="fill:#000;fill-opacity:1;stroke:none;stroke-width:0" transform="translate(400.555 76.797)scale(.38977)"/><path d="M4.531 0v-4.5h-.765v2.547c0 .844-.422 1.422-1.328 1.422-.797 0-1.079-.5-1.079-1.266V-4.5H.641v2.719C.64-.72 1.14.125 2.266.125c.578 0 1.172-.328 1.5-.719V0Zm0 0" style="fill:#000;fill-opacity:1;stroke:none;stroke-width:0" transform="translate(402.61 76.797)scale(.38977)"/><path d="M3.203 0v-.64h-.781c-.703 0-.828-.172-.828-.829v-2.437h1.328V-4.5H1.594v-1.281H1.28L.86-4.5H.33v.594h.53v2.437C.86-.344 1.313 0 2.422 0Zm0 0" style="fill:#000;fill-opacity:1;stroke:none;stroke-width:0" transform="translate(404.644 76.797)scale(.38977)"/></g><g style="fill:#000;fill-opacity:1"><path d="M1.313-6.89H.578V0h.735Zm0 0" style="fill:#000;fill-opacity:1;stroke:none;stroke-width:0" transform="translate(407.149 76.797)scale(.38977)"/><path d="M4.14 0v-2.562c0-1.297-.546-2.047-1.89-2.047-.484 0-1.078.156-1.516.312v.734c.454-.25.829-.406 1.454-.406.718.016 1.265.375 1.265 1.125H2.422c-1.063 0-2 .36-2 1.531C.453-.405.984.125 1.89.125c.64 0 1.218-.266 1.562-.719V0Zm-.687-2.094c0 .875-.406 1.578-1.344 1.578-.546 0-1-.25-1-.843 0-.875.829-.875 1.61-.875h.734zm0 0" style="fill:#000;fill-opacity:1;stroke:none;stroke-width:0" transform="translate(407.925 76.797)scale(.38977)"/></g><g style="fill:#000;fill-opacity:1"><path d="M4.563-4.5h-.688l-1.39 3.297L.858-4.5H.156L2.11-.469l-.765 1.813c-.125.312-.547.547-.75.547l.25.515c.375-.031.765-.297 1.015-.687Zm0 0" style="fill:#000;fill-opacity:1;stroke:none;stroke-width:0" transform="translate(409.704 76.797)scale(.38977)"/></g><g style="fill:#000;fill-opacity:1"><path d="M4.547-2.25v-.078c0-1.297-.531-2.25-2.016-2.281C1.203-4.61.453-3.453.453-2.203c0 1.36.828 2.328 2.203 2.328.625 0 1.188-.14 1.735-.344v-.75c-.72.344-.828.422-1.672.422-.938 0-1.5-.562-1.5-1.625v-.078Zm-.734-.61H1.25c.094-.593.531-1.109 1.281-1.109.781 0 1.281.485 1.281 1.11m0 0" style="fill:#000;fill-opacity:1;stroke:none;stroke-width:0" transform="translate(411.475 76.797)scale(.38977)"/><path d="m3.188-3.594.234-.719c-.11-.125-.594-.25-.922-.25-.469.016-.86.25-1.062.672V-4.5h-.75V0h.75v-2.406c0-.656.343-1.516 1.046-1.516h.047c.235 0 .422.14.656.328m0 0" style="fill:#000;fill-opacity:1;stroke:none;stroke-width:0" transform="translate(413.4 76.797)scale(.38977)"/></g></g><path d="M388.175 111.548c-1.03.315-2.744.328-4.035-.198-1.187-.484-2.023-1.23-2.943-2.084" style="fill:none;stroke:#773c23;stroke-width:.265;stroke-linecap:butt;stroke-linejoin:miter;stroke-miterlimit:4;stroke-dasharray:.265,.265;stroke-dashoffset:0;stroke-opacity:1;marker-end:url(#e)"/><path d="M358.779 110.902c.189-1.06.958-2.592 2.015-3.501.971-.837 2.015-1.241 3.195-1.672" style="fill:none;stroke:#476779;stroke-width:.265;stroke-linecap:butt;stroke-linejoin:miter;stroke-miterlimit:4;stroke-dasharray:.265,.265;stroke-dashoffset:0;stroke-opacity:1;marker-end:url(#f)"/><g ns1:alignment="middle center" ns1:jacobian_sqrt=".447" ns1:pdfconverter="pdf2svg" ns1:preamble="C:\\Users\\drsjd\\AppData\\Roaming\\inkscape\\extensions\\textext\\default_packages_simon.tex" ns1:scale="1.267" ns1:texconverter="pdflatex" ns1:text="\\begin{center}\n\\noindent Neuron or\\\\\nhidden unit\n\\end{center}" ns1:version="0.11.0" style="fill:#773c23;fill-opacity:1"><g style="fill:#773c23;fill-opacity:1"><path d="M5.469 0v-6.89h-.75v5.562L1.39-6.891H.688V0h.734v-5.547L4.719 0Zm0 0" style="fill:#773c23;fill-opacity:1;stroke:none;stroke-width:0" transform="translate(390.198 109.03)scale(.38977)"/><path d="M4.547-2.25v-.078c0-1.297-.531-2.25-2.016-2.281C1.203-4.61.453-3.453.453-2.203c0 1.36.828 2.328 2.203 2.328.625 0 1.188-.14 1.735-.344v-.75c-.72.344-.828.422-1.672.422-.938 0-1.5-.562-1.5-1.625v-.078Zm-.734-.61H1.25c.094-.593.531-1.109 1.281-1.109.781 0 1.281.485 1.281 1.11m0 0" style="fill:#773c23;fill-opacity:1;stroke:none;stroke-width:0" transform="translate(392.598 109.03)scale(.38977)"/><path d="M4.531 0v-4.5h-.765v2.547c0 .844-.422 1.422-1.328 1.422-.797 0-1.079-.5-1.079-1.266V-4.5H.641v2.719C.64-.72 1.14.125 2.266.125c.578 0 1.172-.328 1.5-.719V0Zm0 0" style="fill:#773c23;fill-opacity:1;stroke:none;stroke-width:0" transform="translate(394.524 109.03)scale(.38977)"/><path d="m3.188-3.594.234-.719c-.11-.125-.594-.25-.922-.25-.469.016-.86.25-1.062.672V-4.5h-.75V0h.75v-2.406c0-.656.343-1.516 1.046-1.516h.047c.235 0 .422.14.656.328m0 0" style="fill:#773c23;fill-opacity:1;stroke:none;stroke-width:0" transform="translate(396.559 109.03)scale(.38977)"/></g><g style="fill:#773c23;fill-opacity:1"><path d="M4.688-2.25c0-1.14-.61-2.36-2.11-2.36-1.36 0-2.125 1.048-2.125 2.36 0 1.234.797 2.344 2.125 2.375 1.344-.031 2.11-1.11 2.11-2.375m-.735 0c0 .89-.547 1.688-1.375 1.688-1.125-.016-1.375-1.016-1.375-1.704 0-.906.438-1.656 1.375-1.671.875.015 1.375.828 1.375 1.687m0 0" style="fill:#773c23;fill-opacity:1;stroke:none;stroke-width:0" transform="translate(397.832 109.03)scale(.38977)"/><path d="M4.563 0v-2.719c0-1.062-.454-1.89-1.61-1.89-.578 0-1.172.218-1.531.718V-4.5H.688V0h.734v-2.547c.031-.86.562-1.406 1.36-1.406.78 0 1.062.469 1.062 1.265V0Zm0 0" style="fill:#773c23;fill-opacity:1;stroke:none;stroke-width:0" transform="translate(399.848 109.03)scale(.38977)"/></g><g style="fill:#773c23;fill-opacity:1"><path d="M4.688-2.25c0-1.14-.61-2.36-2.11-2.36-1.36 0-2.125 1.048-2.125 2.36 0 1.234.797 2.344 2.125 2.375 1.344-.031 2.11-1.11 2.11-2.375m-.735 0c0 .89-.547 1.688-1.375 1.688-1.125-.016-1.375-1.016-1.375-1.704 0-.906.438-1.656 1.375-1.671.875.015 1.375.828 1.375 1.687m0 0" style="fill:#773c23;fill-opacity:1;stroke:none;stroke-width:0" transform="translate(403.036 109.03)scale(.38977)"/><path d="m3.188-3.594.234-.719c-.11-.125-.594-.25-.922-.25-.469.016-.86.25-1.062.672V-4.5h-.75V0h.75v-2.406c0-.656.343-1.516 1.046-1.516h.047c.235 0 .422.14.656.328m0 0" style="fill:#773c23;fill-opacity:1;stroke:none;stroke-width:0" transform="translate(405.051 109.03)scale(.38977)"/></g><g style="fill:#773c23;fill-opacity:1"><path d="M4.563 0v-2.734c0-1.047-.47-1.875-1.61-1.875-.61 0-1.187.187-1.531.734v-3.016H.688V0h.734v-2.547c.031-.86.61-1.406 1.36-1.406.796.015 1.062.469 1.062 1.265V0Zm0 0" style="fill:#773c23;fill-opacity:1;stroke:none;stroke-width:0" transform="translate(389.202 113.69)scale(.38977)"/><path d="M1.438 0v-4.5h-.75V0Zm-.375-6.89c-.235 0-.438.218-.438.452 0 .25.203.47.438.47.25 0 .437-.22.437-.47a.45.45 0 0 0-.437-.453m0 0" style="fill:#773c23;fill-opacity:1;stroke:none;stroke-width:0" transform="translate(391.225 113.69)scale(.38977)"/><path d="M.438-2.25C.438-.922 1.313 0 2.656 0h1.906v-6.89h-.75v2.39H2.72C1.25-4.5.438-3.594.438-2.25m.718 0c0-.875.563-1.594 1.563-1.594h1.094v3.188H2.718c-.985 0-1.563-.625-1.563-1.594m0 0" style="fill:#773c23;fill-opacity:1;stroke:none;stroke-width:0" transform="translate(392.053 113.69)scale(.38977)"/><path d="M.438-2.25C.438-.922 1.313 0 2.656 0h1.906v-6.89h-.75v2.39H2.72C1.25-4.5.438-3.594.438-2.25m.718 0c0-.875.563-1.594 1.563-1.594h1.094v3.188H2.718c-.985 0-1.563-.625-1.563-1.594m0 0" style="fill:#773c23;fill-opacity:1;stroke:none;stroke-width:0" transform="translate(394.099 113.69)scale(.38977)"/><path d="M4.547-2.25v-.078c0-1.297-.531-2.25-2.016-2.281C1.203-4.61.453-3.453.453-2.203c0 1.36.828 2.328 2.203 2.328.625 0 1.188-.14 1.735-.344v-.75c-.72.344-.828.422-1.672.422-.938 0-1.5-.562-1.5-1.625v-.078Zm-.734-.61H1.25c.094-.593.531-1.109 1.281-1.109.781 0 1.281.485 1.281 1.11m0 0" style="fill:#773c23;fill-opacity:1;stroke:none;stroke-width:0" transform="translate(396.145 113.69)scale(.38977)"/><path d="M4.563 0v-2.719c0-1.062-.454-1.89-1.61-1.89-.578 0-1.172.218-1.531.718V-4.5H.688V0h.734v-2.547c.031-.86.562-1.406 1.36-1.406.78 0 1.062.469 1.062 1.265V0Zm0 0" style="fill:#773c23;fill-opacity:1;stroke:none;stroke-width:0" transform="translate(398.071 113.69)scale(.38977)"/></g><g style="fill:#773c23;fill-opacity:1"><path d="M4.531 0v-4.5h-.765v2.547c0 .844-.422 1.422-1.328 1.422-.797 0-1.079-.5-1.079-1.266V-4.5H.641v2.719C.64-.72 1.14.125 2.266.125c.578 0 1.172-.328 1.5-.719V0Zm0 0" style="fill:#773c23;fill-opacity:1;stroke:none;stroke-width:0" transform="translate(401.26 113.69)scale(.38977)"/><path d="M4.563 0v-2.719c0-1.062-.454-1.89-1.61-1.89-.578 0-1.172.218-1.531.718V-4.5H.688V0h.734v-2.547c.031-.86.562-1.406 1.36-1.406.78 0 1.062.469 1.062 1.265V0Zm0 0" style="fill:#773c23;fill-opacity:1;stroke:none;stroke-width:0" transform="translate(403.294 113.69)scale(.38977)"/><path d="M1.438 0v-4.5h-.75V0Zm-.375-6.89c-.235 0-.438.218-.438.452 0 .25.203.47.438.47.25 0 .437-.22.437-.47a.45.45 0 0 0-.437-.453m0 0" style="fill:#773c23;fill-opacity:1;stroke:none;stroke-width:0" transform="translate(405.317 113.69)scale(.38977)"/><path d="M3.203 0v-.64h-.781c-.703 0-.828-.172-.828-.829v-2.437h1.328V-4.5H1.594v-1.281H1.28L.86-4.5H.33v.594h.53v2.437C.86-.344 1.313 0 2.422 0Zm0 0" style="fill:#773c23;fill-opacity:1;stroke:none;stroke-width:0" transform="translate(406.144 113.69)scale(.38977)"/></g></g><circle cx="376.389" cy="97.285" r="3.918" style="fill:none;fill-opacity:1;stroke:#773c23;stroke-width:.3;stroke-miterlimit:4;stroke-dasharray:none;stroke-dashoffset:0;stroke-opacity:1"/><circle cx="376.389" cy="87.499" r="3.918" style="fill:none;fill-opacity:1;stroke:#773c23;stroke-width:.3;stroke-miterlimit:4;stroke-dasharray:none;stroke-dashoffset:0;stroke-opacity:1"/><circle cx="347.957" cy="92.392" r="3.918" style="fill:none;fill-opacity:1;stroke:#000;stroke-width:.3;stroke-miterlimit:4;stroke-dasharray:none;stroke-dashoffset:0;stroke-opacity:1"/><circle cx="347.957" cy="102.308" r="3.918" style="fill:none;fill-opacity:1;stroke:#000;stroke-width:.3;stroke-miterlimit:4;stroke-dasharray:none;stroke-dashoffset:0;stroke-opacity:1"/><circle cx="347.957" cy="82.476" r="3.918" style="fill:none;fill-opacity:1;stroke:#000;stroke-width:.3;stroke-miterlimit:4;stroke-dasharray:none;stroke-dashoffset:0;stroke-opacity:1"/><g ns1:alignment="middle center" ns1:jacobian_sqrt=".39" ns1:pdfconverter="pdf2svg" ns1:preamble="C:\\Users\\drsjd\\AppData\\Roaming\\inkscape\\extensions\\textext\\default_packages_simon.tex" ns1:scale="1.105" ns1:texconverter="pdflatex" ns1:text="\\begin{center}\n\\noindent Weight\n\\end{center}" ns1:version="0.11.0" style="fill:#476779;fill-opacity:1"><g style="fill:#476779;fill-opacity:1"><path d="M8.203-6.89h-.75L6.016-2.188 4.188-7.063 2.422-2.186.953-6.891h-.75L2.328.141l1.86-5.22L6.109.142zm0 0" style="fill:#476779;fill-opacity:1;stroke:none;stroke-width:0" transform="translate(351.612 113.135)scale(.38977)"/></g><g style="fill:#476779;fill-opacity:1"><path d="M4.547-2.25v-.078c0-1.297-.531-2.25-2.016-2.281C1.203-4.61.453-3.453.453-2.203c0 1.36.828 2.328 2.203 2.328.625 0 1.188-.14 1.735-.344v-.75c-.72.344-.828.422-1.672.422-.938 0-1.5-.562-1.5-1.625v-.078Zm-.734-.61H1.25c.094-.593.531-1.109 1.281-1.109.781 0 1.281.485 1.281 1.11m0 0" style="fill:#476779;fill-opacity:1;stroke:none;stroke-width:0" transform="translate(354.672 113.135)scale(.38977)"/><path d="M1.438 0v-4.5h-.75V0Zm-.375-6.89c-.235 0-.438.218-.438.452 0 .25.203.47.438.47.25 0 .437-.22.437-.47a.45.45 0 0 0-.437-.453m0 0" style="fill:#476779;fill-opacity:1;stroke:none;stroke-width:0" transform="translate(356.598 113.135)scale(.38977)"/><path d="M2.047-.11c.844 0 1.422.407 1.422.954s-.578.937-1.422.937S.734 1.391.734.844s.47-.953 1.313-.953m0-.64c-.078 0-.156 0-.25.016-.469 0-.875-.282-.875-.47 0-.218.25-.296.437-.296h.063c.156.14.625.188.766.188.859 0 1.546-.735 1.546-1.641 0-.36-.125-.703-.328-.969h.735v-.562H2.875a2.5 2.5 0 0 0-.64-.094c-.86 0-1.579.734-1.61 1.625 0 .437.156.828.438 1.11-.329.062-.688.28-.688.702 0 .266.172.516.531.672C.328-.172-.016.313-.016.828c0 .813.829 1.563 2.063 1.563 1.25 0 2.266-.75 2.266-1.547 0-1.047-1.22-1.594-2.266-1.594m.14-3.203a.977.977 0 0 1 0 1.953.964.964 0 0 1-.968-.969c0-.547.422-.984.968-.984m0 0" style="fill:#476779;fill-opacity:1;stroke:none;stroke-width:0" transform="translate(357.426 113.135)scale(.38977)"/><path d="M4.563 0v-2.734c0-1.047-.47-1.875-1.61-1.875-.61 0-1.187.187-1.531.734v-3.016H.688V0h.734v-2.547c.031-.86.61-1.406 1.36-1.406.796.015 1.062.469 1.062 1.265V0Zm0 0" style="fill:#476779;fill-opacity:1;stroke:none;stroke-width:0" transform="translate(359.227 113.135)scale(.38977)"/></g><g style="fill:#476779;fill-opacity:1"><path d="M3.203 0v-.64h-.781c-.703 0-.828-.172-.828-.829v-2.437h1.328V-4.5H1.594v-1.281H1.28L.86-4.5H.33v.594h.53v2.437C.86-.344 1.313 0 2.422 0Zm0 0" style="fill:#476779;fill-opacity:1;stroke:none;stroke-width:0" transform="translate(361.18 113.135)scale(.38977)"/></g></g></g></svg>