<svg xmlns="http://www.w3.org/2000/svg" xmlns:ns1="http://www.iki.fi/pav/software/textext/" width="252.427" height="185.837" viewBox="0 0 66.788 49.169"><rect width="100%" height="100%" fill="#f5f5f5"/><g transform="translate(-28.878 -113.059)"><path fill="none" d="M28.957 113.25h66.63v48.651h-66.63z" style="fill:#f47a60;fill-opacity:0;stroke:#fff;stroke-width:.15751573;stroke-miterlimit:4;stroke-dasharray:none;stroke-dashoffset:0;stroke-opacity:1"/><path d="M45.615 134.08H85.92M65.912 113.926v40.307" style="fill:none;stroke:#c6cdcf;stroke-width:.2;stroke-linecap:butt;stroke-linejoin:miter;stroke-miterlimit:4;stroke-dasharray:none;stroke-dashoffset:0;stroke-opacity:1"/><g style="stroke-width:.41833342;stroke-miterlimit:4;stroke-dasharray:none"><path d="M37.981 170.33v.893M66.006 170.33v.893M94.03 170.33v.893M43.586 170.939v-.609M49.191 170.939v-.609M54.796 170.939v-.609M60.401 170.939v-.609M71.611 170.939v-.609M77.216 170.939v-.609M82.821 170.939v-.609M88.426 170.939v-.609" style="fill:none;stroke:gray;stroke-width:.41833342;stroke-linecap:butt;stroke-linejoin:miter;stroke-miterlimit:4;stroke-dasharray:none;stroke-opacity:1" transform="translate(18.567 32.09)scale(.71713)"/></g><path d="M45.834 114.045h-.64M45.834 134.142h-.64M45.805 154.24h-.64M45.834 118.064h-.436M45.834 122.084h-.436M45.834 126.103h-.436M45.834 130.123h-.436M45.834 138.162h-.436M45.834 142.181h-.436M45.834 146.2h-.436M45.834 150.22h-.436" style="fill:none;stroke:gray;stroke-width:.3;stroke-linecap:butt;stroke-linejoin:miter;stroke-miterlimit:4;stroke-dasharray:none;stroke-opacity:1"/><path d="m45.907 134.104 19.855.06 20.07-19.98" style="fill:none;fill-opacity:1;stroke:#d18362;stroke-width:.69999999;stroke-linecap:butt;stroke-linejoin:miter;stroke-miterlimit:4;stroke-dasharray:none;stroke-opacity:1"/><g ns1:alignment="middle center" ns1:jacobian_sqrt=".397" ns1:pdfconverter="pdf2svg" ns1:preamble="C:\\Users\\drsjd\\AppData\\Roaming\\inkscape\\extensions\\textext\\default_packages_simon.tex" ns1:scale="1.126" ns1:texconverter="pdflatex" ns1:text="$\\mbox{ReLU}[z]$" ns1:version="0.11.0" style="fill:#000;fill-opacity:1"><g style="fill-opacity:1;fill:#000"><path d="M5.313 0c-.704-.797-.844-2.64-1.86-3.266 1.094-.296 1.281-.859 1.281-1.671 0-1.375-.796-1.954-2.109-1.954H.688V0h.75v-2.953H2.53c.453 0 .844.39 1.219 1.172.234.61.297 1.344.781 1.781ZM4-4.937c0 .875-.531 1.296-1.375 1.296H1.438v-2.562h1.187C3.453-6.187 4-5.86 4-4.937m0 0" style="fill-opacity:1;stroke:none;stroke-width:0;fill:#000" transform="rotate(-90 89.956 50.203)scale(.39728)"/></g><g style="fill-opacity:1;fill:#000"><path d="M4.547-2.25v-.078c0-1.297-.531-2.25-2.016-2.281C1.203-4.61.453-3.453.453-2.203c0 1.36.828 2.328 2.203 2.328.625 0 1.188-.14 1.735-.344v-.75c-.72.344-.828.422-1.672.422-.938 0-1.5-.562-1.5-1.625v-.078Zm-.734-.61H1.25c.094-.593.531-1.109 1.281-1.109.781 0 1.281.485 1.281 1.11m0 0" style="fill-opacity:1;stroke:none;stroke-width:0;fill:#000" transform="rotate(-90 88.907 49.154)scale(.39728)"/><path d="M4.64 0v-.719H1.454V-6.89H.687V0Zm0 0" style="fill-opacity:1;stroke:none;stroke-width:0;fill:#000" transform="rotate(-90 87.926 48.173)scale(.39728)"/></g><g style="fill-opacity:1;fill:#000"><path d="M5.469-2.578v-4.313h-.735v4.204c0 1.265-.296 2.156-1.656 2.156-1.39 0-1.703-.86-1.703-2.156v-4.204h-.75v4.313C.625-.906 1.359.14 3.078.14c1.703 0 2.39-1.078 2.39-2.72m0 0" style="fill-opacity:1;stroke:none;stroke-width:0;fill:#000" transform="rotate(-90 87.095 47.341)scale(.39728)"/></g><g style="fill-opacity:1;fill:#000"><path d="M2.547 2.5v-.406h-.969v-9.172h.969v-.406H1.172V2.5Zm0 0" style="fill-opacity:1;stroke:none;stroke-width:0;fill:#000" transform="rotate(-90 85.884 46.13)scale(.39728)"/></g><g style="fill-opacity:1;fill:#000"><path d="M1.328-.828c.531-.578.828-.828 1.188-1.14 0 0 .609-.532.968-.891.954-.922 1.172-1.407 1.172-1.453 0-.094-.093-.094-.11-.094-.077 0-.093.015-.155.11-.297.484-.5.64-.735.64-.25 0-.36-.156-.515-.328-.188-.22-.36-.422-.688-.422-.75 0-1.203.922-1.203 1.14 0 .047.031.11.11.11.093 0 .109-.047.14-.11.188-.468.766-.468.844-.468.203 0 .39.062.625.14.406.156.515.156.765.156-.359.422-1.187 1.141-1.375 1.297l-.906.844C.781-.625.422-.062.422.016c0 .093.11.093.125.093C.625.11.64.094.703-.016c.235-.359.531-.625.86-.625.218 0 .328.094.578.375.156.22.343.375.625.375 1 0 1.578-1.265 1.578-1.53 0-.048-.047-.11-.125-.11-.094 0-.11.062-.14.14-.235.641-.876.829-1.204.829-.187 0-.375-.063-.578-.125-.344-.125-.5-.172-.703-.172-.016 0-.172 0-.266.03m0 0" style="fill-opacity:1;stroke:none;stroke-width:0;fill:#000" transform="rotate(-90 85.334 45.58)scale(.39728)"/></g><g style="fill-opacity:1;fill:#000"><path d="M1.578-7.484H.218v.406h.97v9.172h-.97V2.5h1.36Zm0 0" style="fill-opacity:1;stroke:none;stroke-width:0;fill:#000" transform="rotate(-90 84.326 44.573)scale(.39728)"/></g></g><g ns1:alignment="middle center" ns1:jacobian_sqrt=".397" ns1:pdfconverter="pdf2svg" ns1:preamble="C:\\Users\\drsjd\\AppData\\Roaming\\inkscape\\extensions\\textext\\default_packages_simon.tex" ns1:scale="1.126" ns1:texconverter="pdflatex" ns1:text="$z$" ns1:version="0.11.0" style="fill:#000;fill-opacity:1"><g style="fill-opacity:1;fill:#000"><path d="M1.328-.828c.531-.578.828-.828 1.188-1.14 0 0 .609-.532.968-.891.954-.922 1.172-1.407 1.172-1.453 0-.094-.093-.094-.11-.094-.077 0-.093.015-.155.11-.297.484-.5.64-.735.64-.25 0-.36-.156-.515-.328-.188-.22-.36-.422-.688-.422-.75 0-1.203.922-1.203 1.14 0 .047.031.11.11.11.093 0 .109-.047.14-.11.188-.468.766-.468.844-.468.203 0 .39.062.625.14.406.156.515.156.765.156-.359.422-1.187 1.141-1.375 1.297l-.906.844C.781-.625.422-.062.422.016c0 .093.11.093.125.093C.625.11.64.094.703-.016c.235-.359.531-.625.86-.625.218 0 .328.094.578.375.156.22.343.375.625.375 1 0 1.578-1.265 1.578-1.53 0-.048-.047-.11-.125-.11-.094 0-.11.062-.14.14-.235.641-.876.829-1.204.829-.187 0-.375-.063-.578-.125-.344-.125-.5-.172-.703-.172-.016 0-.172 0-.266.03m0 0" style="fill-opacity:1;stroke:none;stroke-width:0;fill:#000" transform="translate(64.903 161.235)scale(.39728)"/></g></g><rect width="40.195" height="40.195" x="45.804" y="114.045" ry="0" style="fill:none;fill-opacity:1;stroke:#030000;stroke-width:.3;stroke-miterlimit:4;stroke-dasharray:none;stroke-dashoffset:0;stroke-opacity:1"/><g ns1:alignment="middle center" ns1:inkscapeversion="1.1.2" ns1:jacobian_sqrt=".28" ns1:pdfconverter="inkscape" ns1:preamble="/Users/simonprince/Library/Application Support/org.inkscape.Inkscape/config/inkscape/extensions/textext/default_packages_simon.tex" ns1:scale=".793" ns1:stroke-to-path="0" ns1:texconverter="pdflatex" ns1:text="0" ns1:version="1.8.1" style="fill:gray;fill-opacity:1;stroke-width:0;stroke-linecap:butt;stroke-linejoin:round"><g style="fill:gray;fill-opacity:1;stroke-width:0;stroke-linecap:butt;stroke-linejoin:round"><path d="M4.563-3.25c0-.781-.047-1.719-.47-2.516-.405-.75-1.093-1-1.593-1-.594 0-1.297.282-1.703 1.157C.469-4.875.422-4.047.422-3.25c0 .781.031 1.516.328 2.25C1.156-.047 1.906.219 2.484.219c.72 0 1.36-.406 1.672-1.094.297-.656.407-1.312.407-2.375ZM2.5-.39c-.531 0-.937-.376-1.14-1.094-.157-.563-.157-1.11-.157-1.891 0-.625 0-1.219.156-1.766.063-.187.313-1.015 1.125-1.015.782 0 1.032.765 1.11.937.187.563.187 1.235.187 1.844 0 .656 0 1.297-.187 1.922-.25.906-.781 1.062-1.094 1.062zm0 0" style="fill:gray;fill-opacity:1;stroke:gray;stroke-width:0;stroke-linecap:butt;stroke-linejoin:round" transform="translate(64.188 157.377)scale(.27965)"/></g><g style="fill:gray;fill-opacity:1;stroke-width:0;stroke-linecap:butt;stroke-linejoin:round"><path d="M1.797-.828H.969V0h.828zm0 0" style="fill:gray;fill-opacity:1;stroke:gray;stroke-width:0;stroke-linecap:butt;stroke-linejoin:round" transform="translate(65.58 157.377)scale(.27965)"/></g><g style="fill:gray;fill-opacity:1;stroke-width:0;stroke-linecap:butt;stroke-linejoin:round"><path d="M4.563-3.25c0-.781-.047-1.719-.47-2.516-.405-.75-1.093-1-1.593-1-.594 0-1.297.282-1.703 1.157C.469-4.875.422-4.047.422-3.25c0 .781.031 1.516.328 2.25C1.156-.047 1.906.219 2.484.219c.72 0 1.36-.406 1.672-1.094.297-.656.407-1.312.407-2.375ZM2.5-.39c-.531 0-.937-.376-1.14-1.094-.157-.563-.157-1.11-.157-1.891 0-.625 0-1.219.156-1.766.063-.187.313-1.015 1.125-1.015.782 0 1.032.765 1.11.937.187.563.187 1.235.187 1.844 0 .656 0 1.297-.187 1.922-.25.906-.781 1.062-1.094 1.062zm0 0" style="fill:gray;fill-opacity:1;stroke:gray;stroke-width:0;stroke-linecap:butt;stroke-linejoin:round" transform="translate(66.355 157.377)scale(.27965)"/></g></g><g ns1:alignment="middle center" ns1:inkscapeversion="1.1.2" ns1:jacobian_sqrt=".28" ns1:pdfconverter="inkscape" ns1:preamble="/Users/simonprince/Library/Application Support/org.inkscape.Inkscape/config/inkscape/extensions/textext/default_packages_simon.tex" ns1:scale=".793" ns1:stroke-to-path="0" ns1:texconverter="pdflatex" ns1:text="0" ns1:version="1.8.1" style="fill:gray;fill-opacity:1;stroke-width:0;stroke-linecap:butt;stroke-linejoin:round"><g style="fill:gray;fill-opacity:1;stroke-width:0;stroke-linecap:butt;stroke-linejoin:round"><path d="M4.563-3.25c0-.781-.047-1.719-.47-2.516-.405-.75-1.093-1-1.593-1-.594 0-1.297.282-1.703 1.157C.469-4.875.422-4.047.422-3.25c0 .781.031 1.516.328 2.25C1.156-.047 1.906.219 2.484.219c.72 0 1.36-.406 1.672-1.094.297-.656.407-1.312.407-2.375ZM2.5-.39c-.531 0-.937-.376-1.14-1.094-.157-.563-.157-1.11-.157-1.891 0-.625 0-1.219.156-1.766.063-.187.313-1.015 1.125-1.015.782 0 1.032.765 1.11.937.187.563.187 1.235.187 1.844 0 .656 0 1.297-.187 1.922-.25.906-.781 1.062-1.094 1.062zm0 0" style="fill:gray;fill-opacity:1;stroke:gray;stroke-width:0;stroke-linecap:butt;stroke-linejoin:round" transform="translate(41.186 135.058)scale(.27965)"/></g><g style="fill:gray;fill-opacity:1;stroke-width:0;stroke-linecap:butt;stroke-linejoin:round"><path d="M1.797-.828H.969V0h.828zm0 0" style="fill:gray;fill-opacity:1;stroke:gray;stroke-width:0;stroke-linecap:butt;stroke-linejoin:round" transform="translate(42.58 135.058)scale(.27965)"/></g><g style="fill:gray;fill-opacity:1;stroke-width:0;stroke-linecap:butt;stroke-linejoin:round"><path d="M4.563-3.25c0-.781-.047-1.719-.47-2.516-.405-.75-1.093-1-1.593-1-.594 0-1.297.282-1.703 1.157C.469-4.875.422-4.047.422-3.25c0 .781.031 1.516.328 2.25C1.156-.047 1.906.219 2.484.219c.72 0 1.36-.406 1.672-1.094.297-.656.407-1.312.407-2.375ZM2.5-.39c-.531 0-.937-.376-1.14-1.094-.157-.563-.157-1.11-.157-1.891 0-.625 0-1.219.156-1.766.063-.187.313-1.015 1.125-1.015.782 0 1.032.765 1.11.937.187.563.187 1.235.187 1.844 0 .656 0 1.297-.187 1.922-.25.906-.781 1.062-1.094 1.062zm0 0" style="fill:gray;fill-opacity:1;stroke:gray;stroke-width:0;stroke-linecap:butt;stroke-linejoin:round" transform="translate(43.353 135.058)scale(.27965)"/></g></g><g ns1:alignment="middle center" ns1:jacobian_sqrt=".28" ns1:pdfconverter="pdf2svg" ns1:preamble="C:\\Users\\drsjd\\AppData\\Roaming\\inkscape\\extensions\\textext\\default_packages_simon.tex" ns1:scale=".793" ns1:texconverter="pdflatex" ns1:text="5" ns1:version="0.11.0" style="fill:gray;fill-opacity:1"><path d="M4.469-2.187c-.016-1.407-.89-2.329-2.297-2.329-.188.016-.61.063-.86.157l.25-1.813H4v-.719H1.063L.64-3.484c.547-.266.672-.328 1.375-.328 1.015 0 1.734.562 1.734 1.624 0 1.094-.703 1.626-1.734 1.626-.688 0-1.141-.141-1.641-.454v.86A5.2 5.2 0 0 0 2.031.14C3.516.14 4.47-.672 4.47-2.187m0 0" style="fill:gray;fill-opacity:1;stroke:none;stroke-width:0" transform="translate(84.398 157.4)scale(.27965)"/><path d="M1.64 0v-1.016H.689V0Zm0 0" style="fill:gray;fill-opacity:1;stroke:none;stroke-width:0" transform="translate(85.772 157.4)scale(.27965)"/><path d="M4.969-3.422c-.016-1.469-.344-3.594-2.203-3.594-1.86 0-2.172 2.157-2.172 3.594C.594-1.969.922.141 2.766.141c1.843 0 2.203-2.11 2.203-3.563m-.719 0c0 .953-.078 2.906-1.484 2.906-1.407 0-1.453-1.984-1.453-2.906 0-.937.03-2.953 1.453-2.953 1.406 0 1.484 2.031 1.484 2.953m0 0" style="fill:gray;fill-opacity:1;stroke:none;stroke-width:0" transform="translate(86.42 157.4)scale(.27965)"/></g><g ns1:alignment="middle center" ns1:jacobian_sqrt=".28" ns1:pdfconverter="pdf2svg" ns1:preamble="C:\\Users\\drsjd\\AppData\\Roaming\\inkscape\\extensions\\textext\\default_packages_simon.tex" ns1:scale=".793" ns1:texconverter="pdflatex" ns1:text="-5" ns1:version="0.11.0" style="fill:gray;fill-opacity:1"><path d="M2.953-1.922v-.656H.688v.656zm0 0" style="fill:gray;fill-opacity:1;stroke:none;stroke-width:0" transform="translate(43.32 157.4)scale(.27965)"/><path d="M4.469-2.187c-.016-1.407-.89-2.329-2.297-2.329-.188.016-.61.063-.86.157l.25-1.813H4v-.719H1.063L.64-3.484c.547-.266.672-.328 1.375-.328 1.015 0 1.734.562 1.734 1.624 0 1.094-.703 1.626-1.734 1.626-.688 0-1.141-.141-1.641-.454v.86A5.2 5.2 0 0 0 2.031.14C3.516.14 4.47-.672 4.47-2.187m0 0" style="fill:gray;fill-opacity:1;stroke:none;stroke-width:0" transform="translate(44.34 157.4)scale(.27965)"/><path d="M1.64 0v-1.016H.689V0Zm0 0" style="fill:gray;fill-opacity:1;stroke:none;stroke-width:0" transform="translate(45.714 157.4)scale(.27965)"/><path d="M4.969-3.422c-.016-1.469-.344-3.594-2.203-3.594-1.86 0-2.172 2.157-2.172 3.594C.594-1.969.922.141 2.766.141c1.843 0 2.203-2.11 2.203-3.563m-.719 0c0 .953-.078 2.906-1.484 2.906-1.407 0-1.453-1.984-1.453-2.906 0-.937.03-2.953 1.453-2.953 1.406 0 1.484 2.031 1.484 2.953m0 0" style="fill:gray;fill-opacity:1;stroke:none;stroke-width:0" transform="translate(46.363 157.4)scale(.27965)"/></g><g ns1:alignment="middle center" ns1:jacobian_sqrt=".28" ns1:pdfconverter="pdf2svg" ns1:preamble="C:\\Users\\drsjd\\AppData\\Roaming\\inkscape\\extensions\\textext\\default_packages_simon.tex" ns1:scale=".793" ns1:texconverter="pdflatex" ns1:text="-5" ns1:version="0.11.0" style="fill:gray;fill-opacity:1"><path d="M2.953-1.922v-.656H.688v.656zm0 0" style="fill:gray;fill-opacity:1;stroke:none;stroke-width:0" transform="translate(40.197 154.255)scale(.27965)"/><path d="M4.469-2.187c-.016-1.407-.89-2.329-2.297-2.329-.188.016-.61.063-.86.157l.25-1.813H4v-.719H1.063L.64-3.484c.547-.266.672-.328 1.375-.328 1.015 0 1.734.562 1.734 1.624 0 1.094-.703 1.626-1.734 1.626-.688 0-1.141-.141-1.641-.454v.86A5.2 5.2 0 0 0 2.031.14C3.516.14 4.47-.672 4.47-2.187m0 0" style="fill:gray;fill-opacity:1;stroke:none;stroke-width:0" transform="translate(41.217 154.255)scale(.27965)"/><path d="M1.64 0v-1.016H.689V0Zm0 0" style="fill:gray;fill-opacity:1;stroke:none;stroke-width:0" transform="translate(42.59 154.255)scale(.27965)"/><path d="M4.969-3.422c-.016-1.469-.344-3.594-2.203-3.594-1.86 0-2.172 2.157-2.172 3.594C.594-1.969.922.141 2.766.141c1.843 0 2.203-2.11 2.203-3.563m-.719 0c0 .953-.078 2.906-1.484 2.906-1.407 0-1.453-1.984-1.453-2.906 0-.937.03-2.953 1.453-2.953 1.406 0 1.484 2.031 1.484 2.953m0 0" style="fill:gray;fill-opacity:1;stroke:none;stroke-width:0" transform="translate(43.24 154.255)scale(.27965)"/></g><g ns1:alignment="middle center" ns1:jacobian_sqrt=".28" ns1:pdfconverter="pdf2svg" ns1:preamble="C:\\Users\\drsjd\\AppData\\Roaming\\inkscape\\extensions\\textext\\default_packages_simon.tex" ns1:scale=".793" ns1:texconverter="pdflatex" ns1:text="5" ns1:version="0.11.0" style="fill:gray;fill-opacity:1"><path d="M4.469-2.187c-.016-1.407-.89-2.329-2.297-2.329-.188.016-.61.063-.86.157l.25-1.813H4v-.719H1.063L.64-3.484c.547-.266.672-.328 1.375-.328 1.015 0 1.734.562 1.734 1.624 0 1.094-.703 1.626-1.734 1.626-.688 0-1.141-.141-1.641-.454v.86A5.2 5.2 0 0 0 2.031.14C3.516.14 4.47-.672 4.47-2.187m0 0" style="fill:gray;fill-opacity:1;stroke:none;stroke-width:0" transform="translate(41.217 115.028)scale(.27965)"/><path d="M1.64 0v-1.016H.689V0Zm0 0" style="fill:gray;fill-opacity:1;stroke:none;stroke-width:0" transform="translate(42.59 115.028)scale(.27965)"/><path d="M4.969-3.422c-.016-1.469-.344-3.594-2.203-3.594-1.86 0-2.172 2.157-2.172 3.594C.594-1.969.922.141 2.766.141c1.843 0 2.203-2.11 2.203-3.563m-.719 0c0 .953-.078 2.906-1.484 2.906-1.407 0-1.453-1.984-1.453-2.906 0-.937.03-2.953 1.453-2.953 1.406 0 1.484 2.031 1.484 2.953m0 0" style="fill:gray;fill-opacity:1;stroke:none;stroke-width:0" transform="translate(43.24 115.028)scale(.27965)"/></g></g></svg>